<svg width="75" height="75" viewBox="0 0 75 75" fill="none" xmlns="http://www.w3.org/2000/svg">
<circle cx="37.5" cy="37.5" r="37" fill="#FFAF32" stroke="#FFAF32"/>
<path fill-rule="evenodd" clip-rule="evenodd" d="M49.0555 30.6111C49.5925 31.1481 49.5925 32.0187 49.0555 32.5556L36.2222 45.3889C35.9644 45.6469 35.6146 45.7917 35.25 45.7917C34.8853 45.7917 34.5355 45.6469 34.2777 45.3889L26.9443 38.0556C26.4074 37.5186 26.4074 36.6481 26.9443 36.1112C27.4813 35.5742 28.3519 35.5742 28.8889 36.1112L35.25 42.4721L47.1111 30.6111C47.6481 30.0741 48.5185 30.0741 49.0555 30.6111Z" fill="#1A1A1A"/>
<path fill-rule="evenodd" clip-rule="evenodd" d="M38 21.0416C28.6341 21.0416 21.0416 28.6341 21.0416 38C21.0416 47.3657 28.6341 54.9583 38 54.9583C41.8193 54.9583 45.3401 53.6973 48.1742 51.5685C48.7814 51.1123 49.6435 51.2348 50.0996 51.842C50.5555 52.4492 50.4331 53.3112 49.8259 53.7672C46.5319 56.2416 42.4352 57.7083 38 57.7083C27.1153 57.7083 18.2916 48.8846 18.2916 38C18.2916 27.1153 27.1153 18.2916 38 18.2916C48.8846 18.2916 57.7083 27.1153 57.7083 38C57.7083 40.782 57.131 43.4329 56.0884 45.8365C55.7862 46.5332 54.9764 46.8529 54.2798 46.5506C53.5831 46.2485 53.2634 45.4387 53.5655 44.742C54.4611 42.6775 54.9583 40.3985 54.9583 38C54.9583 28.6341 47.3657 21.0416 38 21.0416Z" fill="#1A1A1A"/>
</svg>
