<svg width="75" height="75" viewBox="0 0 75 75" fill="none" xmlns="http://www.w3.org/2000/svg">
<circle cx="37.5" cy="37.5" r="37" fill="#FFAF32" stroke="#FFAF32"/>
<path d="M47.1967 51.5591C47.0951 50.5317 46.2911 49.7323 45.2416 49.6151L36.0431 48.6006C35.7552 48.5774 35.4666 48.6368 35.2112 48.7718C34.9558 48.9069 34.7442 49.112 34.6013 49.3631C34.6004 49.364 33.7521 50.8788 33.3302 51.6043C33.2073 51.8161 33.1736 52.068 33.2364 52.3047C33.2993 52.5413 33.4535 52.7433 33.6653 52.8662C33.8771 52.9891 34.129 53.0228 34.3656 52.96C34.6023 52.8971 34.8042 52.7429 34.9271 52.5311C35.2604 51.956 35.8595 50.8936 36.1004 50.4643L45.0385 51.4502C45.1271 51.4603 45.3358 51.5074 45.3561 51.6948L45.3681 51.8868C45.3921 52.1729 45.3902 52.4582 45.3653 52.736C45.0893 55.6502 42.4253 58.1379 39.4281 58.28C33.1355 58.5865 27.4484 56.4745 23.3887 52.3576C19.3668 48.2794 17.3591 42.6302 17.7376 36.4511C17.9195 33.4806 20.4551 30.8693 23.3887 30.6311C23.6684 30.6099 23.9564 30.6108 24.2462 30.6385L24.3921 30.6486C24.6201 30.6736 24.6727 30.8582 24.6828 30.9643L25.5579 39.8369C25.1185 40.0705 24.0551 40.6354 23.4699 40.9511C23.2596 41.0702 23.1043 41.267 23.0375 41.4993C22.9707 41.7316 22.9977 41.9808 23.1127 42.1934C23.2276 42.406 23.4214 42.5651 23.6523 42.6364C23.8832 42.7077 24.1329 42.6856 24.3478 42.5748C25.0927 42.1714 26.6204 41.3628 26.6241 41.3609C27.1521 41.0785 27.4659 40.5173 27.4198 39.9099L26.5188 30.7806C26.4136 29.7339 25.6207 28.9253 24.5905 28.8126L24.4161 28.7988C24.0247 28.763 23.631 28.7599 23.2391 28.7896C19.425 29.0997 16.1305 32.4856 15.8942 36.3366C15.4835 43.0474 17.6785 49.1969 22.0733 53.6536C26.2336 57.8702 31.9419 60.1539 38.2576 60.1539C38.6739 60.1539 39.093 60.1437 39.5148 60.1243C43.3945 59.9397 46.8422 56.7034 47.2022 52.9086C47.2382 52.5237 47.2401 52.1286 47.2059 51.7077L47.1967 51.5591Z" fill="#1A1A1A"/>
<path d="M24.0487 43.6299C23.9394 43.6824 23.8415 43.7559 23.7606 43.8463C23.6798 43.9367 23.6175 44.0421 23.5774 44.1565C23.5372 44.271 23.5201 44.3922 23.5268 44.5133C23.5336 44.6344 23.5641 44.7529 23.6167 44.8622C24.3906 46.4759 25.4289 47.9489 26.6887 49.22C27.9791 50.5222 29.4838 51.5929 31.137 52.3853C31.3573 52.4916 31.6109 52.5061 31.8419 52.4255C32.0729 52.345 32.2625 52.1759 32.3689 51.9556C32.4752 51.7352 32.4897 51.4817 32.4091 51.2507C32.3285 51.0196 32.1595 50.8301 31.9392 50.7237C29.024 49.3289 26.6741 46.9784 25.2801 44.0628C25.2279 43.9533 25.1546 43.8552 25.0644 43.7741C24.9742 43.693 24.8689 43.6305 24.7544 43.5903C24.64 43.55 24.5187 43.5328 24.3976 43.5396C24.2765 43.5464 24.1579 43.5771 24.0487 43.6299ZM40.7693 15.8462C33.8702 15.8462 27.4373 19.5588 23.9795 25.5367C23.9147 25.6417 23.8716 25.7586 23.8528 25.8805C23.834 26.0025 23.8398 26.1269 23.8699 26.2466C23.9 26.3662 23.9538 26.4786 24.0281 26.5771C24.1024 26.6757 24.1957 26.7583 24.3024 26.8201C24.4092 26.8819 24.5273 26.9218 24.6497 26.9372C24.7721 26.9526 24.8964 26.9433 25.0151 26.9099C25.1339 26.8765 25.2448 26.8196 25.3412 26.7426C25.4376 26.6656 25.5175 26.57 25.5764 26.4616C28.7065 21.0523 34.5265 17.6923 40.7693 17.6923C50.4404 17.6923 58.3078 25.5597 58.3078 35.2308C58.3078 41.4727 54.9469 47.2936 49.5376 50.4228C49.4292 50.4817 49.3336 50.5616 49.2566 50.658C49.1796 50.7544 49.1227 50.8653 49.0893 50.9841C49.0559 51.1028 49.0466 51.2271 49.062 51.3495C49.0774 51.4719 49.1173 51.59 49.1791 51.6968C49.2409 51.8035 49.3235 51.8968 49.4221 51.9711C49.5206 52.0454 49.633 52.0992 49.7526 52.1293C49.8723 52.1594 49.9967 52.1652 50.1187 52.1464C50.2406 52.1276 50.3575 52.0845 50.4625 52.0197C56.4404 48.5628 60.1539 42.1299 60.1539 35.2308C60.1539 24.5425 51.4576 15.8462 40.7693 15.8462Z" fill="#1A1A1A"/>
<path d="M40.1849 32.6018C40.4802 32.0277 40.6279 31.4784 40.6279 30.9541C40.6279 30.0504 40.3335 29.3424 39.7445 28.8301C39.1556 28.3178 38.3516 28.0621 37.3325 28.0621C36.6255 28.0621 36.0024 28.2043 35.4615 28.4877C34.9205 28.772 34.5052 29.1689 34.2135 29.6812C33.9218 30.1935 33.7769 30.7695 33.7769 31.4083H35.5289C35.5289 30.8074 35.6849 30.3338 35.9978 29.9877C36.3107 29.6415 36.7501 29.4689 37.3178 29.4689C37.7941 29.4689 38.1725 29.6231 38.4532 29.9304C38.7347 30.2378 38.875 30.6421 38.875 31.1415C38.875 31.5218 38.7679 31.9003 38.5538 32.2769C38.3405 32.6544 37.9805 33.1243 37.4756 33.6864L33.9781 37.5015V38.7061H41.0378V37.3077H36.163L38.7301 34.5597C39.4058 33.8286 39.8895 33.176 40.1849 32.6018ZM49.6067 34.9631H48.3015V28.2061H46.4913L41.9627 35.3027L42.0135 36.3698H46.5495V38.7061H48.3015V36.3698H49.6067V34.9631ZM46.5495 34.9631H43.8015L46.4193 30.8092L46.5495 30.5784V34.9631Z" fill="#1A1A1A"/>
</svg>
