<svg width="75" height="75" viewBox="0 0 75 75" fill="none" xmlns="http://www.w3.org/2000/svg">
<circle cx="37.5" cy="37.5" r="37" fill="#FFAF32" stroke="#FFAF32"/>
<path d="M38.0963 39.3025C40.4007 39.3025 42.6534 38.6191 44.5694 37.3389C46.4854 36.0586 47.9789 34.239 48.8607 32.11C49.7426 29.981 49.9734 27.6383 49.5238 25.3782C49.0742 23.1181 47.9645 21.042 46.3351 19.4126C44.7056 17.7831 42.6295 16.6734 40.3694 16.2239C38.1093 15.7743 35.7666 16.005 33.6376 16.8869C31.5086 17.7688 29.6889 19.2621 28.4087 21.1781C27.1284 23.0942 26.4451 25.3469 26.4451 27.6513C26.4485 30.7403 27.6772 33.7018 29.8615 35.8861C32.0458 38.0704 35.0073 39.299 38.0963 39.3025ZM38.0963 17.281C40.1474 17.2811 42.1522 17.8895 43.8575 19.029C45.5628 20.1686 46.892 21.7883 47.6769 23.6833C48.4617 25.5782 48.6669 27.6633 48.2667 29.675C47.8665 31.6866 46.8788 33.5344 45.4285 34.9846C43.9781 36.4349 42.1301 37.4225 40.1185 37.8225C38.1068 38.2226 36.0218 38.0172 34.1269 37.2322C32.232 36.4473 30.6124 35.1181 29.473 33.4127C28.3335 31.7073 27.7253 29.7023 27.7253 27.6513C27.7284 24.9017 28.8221 22.2657 30.7664 20.3215C32.7107 18.3774 35.3468 17.2839 38.0963 17.281Z" fill="#1A1A1A"/>
<path d="M38.0957 36.0777C39.4638 36.0775 40.8114 35.7442 42.0219 35.1065C43.2323 34.4688 44.2693 33.5459 45.0432 32.4176C45.817 31.2893 46.3045 29.9896 46.4635 28.6307C46.6225 27.2717 46.4482 25.8946 45.9557 24.6181C45.4631 23.3417 44.6673 22.2043 43.6367 21.3044C42.6061 20.4045 41.3719 19.7691 40.0407 19.4531C38.7095 19.1371 37.3215 19.1499 35.9964 19.4906C34.6713 19.8313 33.4489 20.4895 32.4352 21.4084C32.3108 21.5229 32.2369 21.6819 32.2293 21.8508C32.2216 22.0197 32.2811 22.1848 32.3947 22.31C32.5083 22.4353 32.6669 22.5105 32.8357 22.5193C33.0046 22.5282 33.17 22.4699 33.296 22.3571C34.6207 21.1586 36.3473 20.5011 38.1337 20.5147C39.9201 20.5284 41.6362 21.2123 42.9424 22.431C44.2487 23.6497 45.0498 25.3144 45.1871 27.0956C45.3245 28.8768 44.7882 30.6446 43.6843 32.0492C42.5804 33.4538 40.9893 34.3927 39.2261 34.6801C37.4629 34.9676 35.656 34.5826 34.1631 33.6013C32.6702 32.6201 31.6002 31.1141 31.1647 29.3815C30.7293 27.6489 30.9602 25.816 31.8117 24.2455C31.8902 24.0965 31.9069 23.9226 31.8581 23.7614C31.8092 23.6002 31.6988 23.4648 31.5508 23.3844C31.4028 23.304 31.2292 23.2851 31.0674 23.3319C30.9056 23.3786 30.7685 23.4872 30.6862 23.6341C29.9909 24.9178 29.641 26.3601 29.6707 27.8197C29.7003 29.2793 30.1087 30.7062 30.8555 31.9606C31.6024 33.215 32.6622 34.2539 33.9312 34.9755C35.2003 35.6971 36.635 36.0768 38.0949 36.0772L38.0957 36.0777Z" fill="#1A1A1A"/>
<path d="M37.8521 30.6689C36.8463 30.6077 36.5699 30.0023 36.5187 29.86C36.4744 29.6979 36.3683 29.5597 36.2231 29.4751C36.078 29.3905 35.9055 29.3662 35.7426 29.4076C35.5798 29.4489 35.4396 29.5525 35.3524 29.6961C35.2651 29.8397 35.2379 30.0118 35.2762 30.1754C35.2762 30.1776 35.2778 30.1821 35.2794 30.1878C35.2869 30.218 35.2968 30.2475 35.3087 30.2762C35.4271 30.6029 35.9019 31.6168 37.3006 31.8881V32.7402C37.3006 32.9101 37.3679 33.073 37.488 33.1932C37.6081 33.3133 37.7711 33.3807 37.941 33.3807C38.1108 33.3807 38.2738 33.3133 38.3939 33.1932C38.514 33.073 38.5816 32.9101 38.5816 32.7402V31.9073C39.0607 31.833 39.5068 31.6183 39.8638 31.2903C40.1069 31.0531 40.2998 30.7695 40.4312 30.4564C40.5626 30.1432 40.6299 29.8069 40.6289 29.4673C40.6289 28.8183 40.3745 27.2806 38.0169 27.0206C37.5498 26.969 37.2172 26.8207 37.0265 26.5789C36.9071 26.4239 36.8418 26.2341 36.8406 26.0384C36.8406 25.926 36.8716 24.9379 37.9412 24.9379C38.6429 24.9379 38.9263 25.3842 38.9796 25.4813C39.0119 25.5619 39.0601 25.6351 39.1214 25.6965C39.1828 25.7579 39.2559 25.8062 39.3364 25.8384C39.417 25.8707 39.5032 25.8864 39.59 25.8843C39.6768 25.8823 39.7622 25.8627 39.8411 25.8267C39.9201 25.7907 39.9911 25.739 40.0495 25.6748C40.108 25.6106 40.1526 25.5352 40.1811 25.4533C40.2095 25.3713 40.2209 25.2844 40.2148 25.1978C40.2086 25.1112 40.1852 25.0268 40.1454 24.9496C39.989 24.6451 39.7679 24.3783 39.4977 24.168C39.2276 23.9577 38.915 23.8089 38.5814 23.732V22.8723C38.5814 22.7024 38.5138 22.5395 38.3937 22.4194C38.2736 22.2993 38.1106 22.2318 37.9407 22.2318C37.7709 22.2318 37.6079 22.2993 37.4878 22.4194C37.3677 22.5395 37.3004 22.7024 37.3004 22.8723V23.7292C36.0362 24.0291 35.5591 25.2089 35.5591 26.0384C35.5591 26.9608 36.1659 28.105 37.8758 28.2937C39.3475 28.4561 39.3477 29.2171 39.3477 29.4673C39.3492 29.8002 39.2189 30.1202 38.9853 30.3574C38.7328 30.5948 38.3516 30.6999 37.8517 30.6698L37.8521 30.6689Z" fill="#1A1A1A"/>
<path d="M27.2277 45.6588C27.1678 45.5951 27.0956 45.5444 27.0154 45.5097C26.9352 45.475 26.8487 45.4572 26.7613 45.4572C26.6739 45.4572 26.5873 45.475 26.507 45.5097C26.4268 45.5444 26.3546 45.5951 26.2947 45.6588L21.9441 50.2839C21.8585 50.3749 21.8014 50.4891 21.7799 50.6122C21.7583 50.7353 21.7732 50.862 21.8228 50.9767C21.8724 51.0915 21.9544 51.1892 22.0588 51.2578C22.1633 51.3265 22.2857 51.3631 22.4107 51.3631H23.668V53.6889C23.668 53.8588 23.7356 54.0217 23.8557 54.1418C23.9758 54.262 24.1386 54.3294 24.3084 54.3294C24.4783 54.3294 24.6413 54.262 24.7614 54.1418C24.8815 54.0217 24.949 53.8588 24.949 53.6889V50.7227C24.949 50.5528 24.8815 50.3899 24.7614 50.2698C24.6413 50.1497 24.4783 50.0822 24.3084 50.0822H23.8923L26.7611 47.0323L29.6301 50.0822H29.2138C29.0439 50.0822 28.8812 50.1497 28.761 50.2698C28.6409 50.3899 28.5734 50.5528 28.5734 50.7227V58.3558H24.9488V56.2508C24.9488 56.081 24.8815 55.918 24.7614 55.7979C24.6413 55.6778 24.4783 55.6103 24.3084 55.6103C24.1386 55.6103 23.9756 55.6778 23.8555 55.7979C23.7354 55.918 23.6678 56.081 23.6678 56.2508V58.9961C23.6678 59.166 23.7354 59.3289 23.8555 59.449C23.9756 59.5691 24.1386 59.6366 24.3084 59.6366H29.2138C29.3836 59.6366 29.5466 59.5691 29.6667 59.449C29.7868 59.3289 29.8541 59.166 29.8541 58.9961V51.3631H31.1117C31.2367 51.3631 31.3591 51.3266 31.4636 51.2579C31.5681 51.1893 31.6502 51.0916 31.6999 50.9768C31.7495 50.8621 31.7644 50.7353 31.7428 50.6122C31.7212 50.489 31.664 50.3749 31.5783 50.2839L27.2277 45.6588Z" fill="#1A1A1A"/>
<path d="M38.5619 41.2526C38.502 41.1889 38.4299 41.1382 38.3496 41.1035C38.2694 41.0688 38.1827 41.0509 38.0953 41.0509C38.0079 41.0509 37.9215 41.0688 37.8413 41.1035C37.761 41.1382 37.6888 41.1889 37.6289 41.2526L33.2783 45.8778C33.1927 45.9689 33.1356 46.083 33.1141 46.2061C33.0925 46.3292 33.1074 46.456 33.157 46.5707C33.2066 46.6854 33.2888 46.7831 33.3933 46.8518C33.4977 46.9204 33.62 46.957 33.7449 46.957H35.0023V58.9962C35.0023 59.1661 35.0698 59.329 35.1899 59.4491C35.3101 59.5692 35.4728 59.6367 35.6427 59.6367H40.548C40.7179 59.6367 40.8808 59.5692 41.0009 59.4491C41.1211 59.329 41.1884 59.1661 41.1884 58.9962V46.9576H42.4459C42.5709 46.9577 42.6931 46.9211 42.7976 46.8524C42.9021 46.7838 42.9842 46.6861 43.0338 46.5713C43.0834 46.4566 43.0984 46.3298 43.0768 46.2067C43.0552 46.0836 42.998 45.9695 42.9123 45.8784L38.5619 41.2526ZM40.5487 45.6759C40.3788 45.6759 40.2159 45.7433 40.0958 45.8635C39.9756 45.9836 39.9081 46.1465 39.9081 46.3164V58.3556H36.2833V46.3166C36.2832 46.1468 36.2157 45.9839 36.0956 45.8638C35.9755 45.7437 35.8125 45.6762 35.6427 45.6761H35.2266L38.0953 42.6262L40.9643 45.6761H40.5482L40.5487 45.6759Z" fill="#1A1A1A"/>
<path d="M49.8967 37.176C49.8368 37.1123 49.7646 37.0616 49.6843 37.0269C49.6041 36.9923 49.5177 36.9744 49.4303 36.9744C49.3429 36.9744 49.2562 36.9923 49.176 37.0269C49.0958 37.0616 49.0236 37.1123 48.9637 37.176L44.6131 41.8011C44.5274 41.8921 44.4702 42.0062 44.4486 42.1294C44.427 42.2525 44.4419 42.3792 44.4915 42.494C44.5411 42.6087 44.6233 42.7064 44.7278 42.7751C44.8322 42.8437 44.9544 42.8803 45.0794 42.8803H46.3368V46.7888C46.3368 46.9586 46.4043 47.1215 46.5244 47.2417C46.6446 47.3618 46.8075 47.4293 46.9774 47.4293C47.1473 47.4293 47.3102 47.3618 47.4303 47.2417C47.5505 47.1215 47.6178 46.9586 47.6178 46.7888V42.2399C47.6178 42.07 47.5505 41.9071 47.4303 41.787C47.3102 41.6669 47.1473 41.5994 46.9774 41.5994H46.561L49.4301 38.5495L52.2988 41.5994H51.8825C51.7126 41.5994 51.5499 41.6669 51.4298 41.787C51.3096 41.9071 51.2421 42.07 51.2421 42.2399V58.3561H47.6178V49.3507C47.6178 49.1808 47.5505 49.0179 47.4303 48.8978C47.3102 48.7776 47.1473 48.7102 46.9774 48.7102C46.8075 48.7102 46.6446 48.7776 46.5244 48.8978C46.4043 49.0179 46.3368 49.1808 46.3368 49.3507V58.9969C46.3368 59.1668 46.4043 59.3297 46.5244 59.4498C46.6446 59.57 46.8075 59.6374 46.9774 59.6374H51.8827C52.0526 59.6374 52.2155 59.57 52.3357 59.4498C52.4558 59.3297 52.5233 59.1668 52.5233 58.9969V42.8803H53.7807C53.9057 42.8803 54.0281 42.8437 54.1326 42.7751C54.237 42.7064 54.319 42.6087 54.3686 42.494C54.4182 42.3792 54.4331 42.2525 54.4115 42.1294C54.3899 42.0062 54.3329 41.8921 54.2473 41.8011L49.8967 37.176Z" fill="#1A1A1A"/>
<path d="M24.0374 27.8804C24.0374 27.7105 23.9698 27.5476 23.8497 27.4274C23.7296 27.3073 23.5666 27.2399 23.3967 27.2399H19.6404C19.4705 27.2399 19.3075 27.3073 19.1874 27.4274C19.0673 27.5476 19 27.7105 19 27.8804C19 28.0502 19.0673 28.2131 19.1874 28.3333C19.3075 28.4534 19.4705 28.5209 19.6404 28.5209H23.3967C23.5666 28.5209 23.7296 28.4534 23.8497 28.3333C23.9698 28.2131 24.0374 28.0502 24.0374 27.8804Z" fill="#1A1A1A"/>
<path d="M24.2258 32.9063L22.8899 33.4297C22.8116 33.4604 22.7401 33.5062 22.6795 33.5645C22.6189 33.6228 22.5704 33.6925 22.5367 33.7696C22.503 33.8466 22.4849 33.9296 22.4833 34.0137C22.4817 34.0977 22.4965 34.1813 22.5272 34.2596C22.5579 34.3379 22.6036 34.4094 22.6619 34.47C22.7202 34.5306 22.7899 34.5791 22.8669 34.6128C22.944 34.6465 23.0271 34.6647 23.1112 34.6663C23.1953 34.6679 23.2787 34.6529 23.357 34.6223L24.6931 34.0989C24.7714 34.0682 24.8429 34.0224 24.9035 33.9641C24.9641 33.9058 25.0126 33.8361 25.0462 33.7591C25.0799 33.682 25.0981 33.599 25.0997 33.5149C25.1013 33.4309 25.0864 33.3473 25.0558 33.269C25.0251 33.1907 24.9794 33.1192 24.9211 33.0586C24.8627 32.998 24.7929 32.9495 24.7158 32.9158C24.6387 32.8821 24.5558 32.8639 24.4718 32.8623C24.3877 32.8607 24.3041 32.8756 24.2258 32.9063Z" fill="#1A1A1A"/>
<path d="M22.8899 22.3308L24.2258 22.8542C24.3041 22.8849 24.3877 22.8998 24.4718 22.8982C24.5558 22.8966 24.6387 22.8784 24.7158 22.8447C24.7929 22.8111 24.8627 22.7625 24.9211 22.7019C24.9794 22.6413 25.0251 22.5698 25.0558 22.4915C25.0864 22.4132 25.1013 22.3296 25.0997 22.2456C25.0981 22.1615 25.0799 22.0785 25.0462 22.0015C25.0126 21.9244 24.9641 21.8548 24.9035 21.7964C24.8429 21.7381 24.7714 21.6924 24.6931 21.6617L23.357 21.1383C23.2787 21.1076 23.1953 21.0926 23.1112 21.0942C23.0271 21.0959 22.944 21.114 22.8669 21.1477C22.7899 21.1814 22.7202 21.2299 22.6619 21.2905C22.6036 21.3511 22.5579 21.4226 22.5272 21.5009C22.4965 21.5792 22.4817 21.6628 22.4833 21.7469C22.4849 21.831 22.503 21.9139 22.5367 21.991C22.5704 22.068 22.6189 22.1377 22.6795 22.196C22.7401 22.2543 22.8116 22.3001 22.8899 22.3308Z" fill="#1A1A1A"/>
<path d="M56.2512 27.2399H52.4949C52.325 27.2399 52.162 27.3073 52.0419 27.4274C51.9218 27.5476 51.8542 27.7105 51.8542 27.8804C51.8542 28.0502 51.9218 28.2131 52.0419 28.3333C52.162 28.4534 52.325 28.5209 52.4949 28.5209H56.2512C56.4211 28.5209 56.5841 28.4534 56.7042 28.3333C56.8243 28.2131 56.8919 28.0502 56.8919 27.8804C56.8919 27.7105 56.8243 27.5476 56.7042 27.4274C56.5841 27.3073 56.4211 27.2399 56.2512 27.2399Z" fill="#1A1A1A"/>
<path d="M51.1993 34.0994L52.5355 34.6228C52.614 34.6549 52.6981 34.6711 52.7829 34.6703C52.8678 34.6696 52.9516 34.652 53.0297 34.6186C53.1077 34.5852 53.1783 34.5365 53.2373 34.4756C53.2964 34.4147 53.3428 34.3426 53.3738 34.2636C53.4047 34.1846 53.4196 34.1002 53.4177 34.0154C53.4158 33.9305 53.397 33.8469 53.3625 33.7694C53.328 33.6918 53.2786 33.6219 53.2168 33.5637C53.1551 33.5055 53.0822 33.4602 53.0028 33.4303L51.6669 32.9069C51.5094 32.8481 51.3352 32.8536 51.1817 32.9222C51.0283 32.9907 50.908 33.1168 50.8467 33.2733C50.7853 33.4298 50.788 33.6041 50.854 33.7586C50.92 33.9132 51.0441 34.0356 51.1995 34.0994H51.1993Z" fill="#1A1A1A"/>
<path d="M51.4338 22.8984C51.5137 22.8983 51.5929 22.8833 51.6673 22.854L53.0032 22.3306C53.1608 22.2682 53.2871 22.1459 53.3547 21.9905C53.4222 21.835 53.4255 21.6592 53.3637 21.5014C53.3018 21.3436 53.1799 21.2168 53.0247 21.1486C52.8695 21.0805 52.6939 21.0766 52.5359 21.1379L51.1997 21.6614C51.0608 21.7159 50.9454 21.8172 50.8732 21.9478C50.801 22.0784 50.7766 22.2301 50.8044 22.3768C50.8321 22.5234 50.9101 22.6558 51.025 22.751C51.1399 22.8463 51.2845 22.8984 51.4338 22.8984Z" fill="#1A1A1A"/>
</svg>
