<svg width="75" height="75" viewBox="0 0 75 75" fill="none" xmlns="http://www.w3.org/2000/svg">
<circle cx="37.5" cy="37.5" r="37" fill="#FFAF32" stroke="#FFAF32"/>
<path fill-rule="evenodd" clip-rule="evenodd" d="M40.1595 24.4685C38.4572 24.4685 36.8243 24.7609 35.3097 25.2987C34.8101 25.4761 34.2613 25.2149 34.0838 24.7153C33.9064 24.2157 34.1676 23.6668 34.6672 23.4894C36.386 22.8791 38.236 22.5485 40.1595 22.5485C49.2449 22.5485 56.6101 29.9148 56.6101 39.0005C56.6101 48.0877 49.2447 55.451 40.1595 55.451C31.073 55.451 23.708 48.0877 23.708 39.0005C23.708 36.3738 24.3231 33.8877 25.4204 31.6824C25.6566 31.2077 26.2328 31.0144 26.7075 31.2506C27.1822 31.4868 27.3755 32.063 27.1393 32.5377C26.1717 34.4825 25.628 36.6764 25.628 39.0005C25.628 47.0271 32.1331 53.531 40.1595 53.531C48.1845 53.531 54.6901 47.0272 54.6901 39.0005C54.6901 30.975 48.1843 24.4685 40.1595 24.4685Z" fill="#1A1A1A"/>
<path fill-rule="evenodd" clip-rule="evenodd" d="M40.565 28.5862C40.6338 28.0605 41.1157 27.6901 41.6414 27.7588C47.2028 28.4863 51.4947 33.2419 51.4947 39.0005C51.4947 45.2606 46.4202 50.3381 40.1595 50.3381C38.6454 50.3381 37.1987 50.0403 35.8755 49.4985C35.3848 49.2975 35.15 48.7369 35.3509 48.2463C35.5518 47.7556 36.1125 47.5208 36.6031 47.7217C37.6992 48.1705 38.8991 48.4181 40.1595 48.4181C45.3592 48.4181 49.5747 44.2008 49.5747 39.0005C49.5747 34.2182 46.0099 30.2666 41.3924 29.6626C40.8667 29.5938 40.4962 29.1119 40.565 28.5862Z" fill="#1A1A1A"/>
<path fill-rule="evenodd" clip-rule="evenodd" d="M40.2897 37.9694C39.7916 37.9694 39.3878 38.3732 39.3878 38.8714C39.3878 39.3695 39.7916 39.7733 40.2897 39.7733C40.7878 39.7733 41.1916 39.3695 41.1916 38.8714C41.1916 38.3732 40.7878 37.9694 40.2897 37.9694ZM37.4678 38.8714C37.4678 37.3129 38.7312 36.0494 40.2897 36.0494C41.8482 36.0494 43.1116 37.3129 43.1116 38.8714C43.1116 40.4299 41.8482 41.6933 40.2897 41.6933C38.7312 41.6933 37.4678 40.4299 37.4678 38.8714Z" fill="#1A1A1A"/>
<path fill-rule="evenodd" clip-rule="evenodd" d="M39.4594 39.6278C39.8505 39.9859 39.8772 40.5931 39.5192 40.9841L32.8433 48.2753C32.4853 48.6664 31.8781 48.6931 31.487 48.3351C31.096 47.9771 31.0692 47.3698 31.4273 46.9788L38.1031 39.6876C38.4611 39.2965 39.0684 39.2698 39.4594 39.6278Z" fill="#1A1A1A"/>
<path fill-rule="evenodd" clip-rule="evenodd" d="M34.7605 28.4164C34.7605 27.8862 35.1903 27.4564 35.7205 27.4564H37.2723C37.8025 27.4564 38.2323 27.8862 38.2323 28.4164C38.2323 28.9466 37.8025 29.3764 37.2723 29.3764H35.7205C35.1903 29.3764 34.7605 28.9466 34.7605 28.4164Z" fill="#1A1A1A"/>
<path fill-rule="evenodd" clip-rule="evenodd" d="M20.6494 28.4164C20.6494 27.8862 21.0792 27.4564 21.6094 27.4564H24.2228C24.753 27.4564 25.1828 27.8862 25.1828 28.4164C25.1828 28.9466 24.753 29.3764 24.2228 29.3764H21.6094C21.0792 29.3764 20.6494 28.9466 20.6494 28.4164ZM28.4895 28.4164C28.4895 27.8862 28.9193 27.4564 29.4495 27.4564H32.0629C32.593 27.4564 33.0229 27.8862 33.0229 28.4164C33.0229 28.9466 32.593 29.3764 32.0629 29.3764H29.4495C28.9193 29.3764 28.4895 28.9466 28.4895 28.4164Z" fill="#1A1A1A"/>
<path fill-rule="evenodd" clip-rule="evenodd" d="M15.8608 28.4164C15.8608 27.8862 16.2906 27.4564 16.8208 27.4564H18.3722C18.9024 27.4564 19.3322 27.8862 19.3322 28.4164C19.3322 28.9466 18.9024 29.3764 18.3722 29.3764H16.8208C16.2906 29.3764 15.8608 28.9466 15.8608 28.4164Z" fill="#1A1A1A"/>
<path fill-rule="evenodd" clip-rule="evenodd" d="M13.3899 24.3941C13.3899 23.8639 13.8197 23.4341 14.3499 23.4341H21.5797C22.1098 23.4341 22.5397 23.8639 22.5397 24.3941C22.5397 24.9243 22.1098 25.3541 21.5797 25.3541H14.3499C13.8197 25.3541 13.3899 24.9243 13.3899 24.3941Z" fill="#1A1A1A"/>
<path fill-rule="evenodd" clip-rule="evenodd" d="M25.6155 24.3941C25.6155 23.8639 26.0453 23.4341 26.5755 23.4341H30.6699C31.2001 23.4341 31.6299 23.8639 31.6299 24.3941C31.6299 24.9243 31.2001 25.3541 30.6699 25.3541H26.5755C26.0453 25.3541 25.6155 24.9243 25.6155 24.3941Z" fill="#1A1A1A"/>
</svg>
