<svg width="131" height="35" viewBox="0 0 131 35" fill="none" xmlns="http://www.w3.org/2000/svg">
<g clip-path="url(#clip0_57_19)">
<mask id="mask0_57_19" style="mask-type:luminance" maskUnits="userSpaceOnUse" x="0" y="0" width="131" height="35">
<path d="M130.5 0.5H0.5V34.5H130.5V0.5Z" fill="white"/>
</mask>
<g mask="url(#mask0_57_19)">
<path d="M6.27778 1H124.722C127.646 1 130 3.3223 130 6.16667V28.8333C130 31.6777 127.646 34 124.722 34H6.27778C3.35374 34 1 31.6777 1 28.8333V6.16667C1 3.3223 3.35374 1 6.27778 1Z" fill="#181818" stroke="#FFAF32" stroke-opacity="0.3"/>
<path d="M38.1146 16.9745C38.0929 14.6257 40.0754 13.4824 40.1664 13.4293C39.0433 11.8235 37.3028 11.6039 36.6911 11.5869C35.2293 11.4361 33.8116 12.444 33.0669 12.444C32.3072 12.444 31.1603 11.6011 29.9246 11.6259C28.3342 11.65 26.8464 12.5538 26.0303 13.9556C24.3461 16.8152 25.6021 21.0177 27.2155 23.3283C28.0229 24.4602 28.9654 25.7246 30.2004 25.6799C31.408 25.6311 31.8587 24.9249 33.3161 24.9249C34.7606 24.9249 35.1838 25.6799 36.4433 25.6516C37.739 25.6311 38.5551 24.5147 39.3337 23.3722C40.2668 22.0745 40.6409 20.7967 40.6561 20.7315C40.6257 20.7209 38.1398 19.7902 38.1146 16.9745ZM35.7363 10.0661C36.3863 9.26924 36.8304 8.18549 36.7069 7.08545C35.7666 7.12653 34.5908 7.72295 33.9141 8.50211C33.3147 9.1892 32.7802 10.3147 32.9174 11.373C33.9741 11.4509 35.0581 10.8503 35.7363 10.0661ZM55.5916 25.517H53.9038L52.9793 22.6681H49.7654L48.8851 25.517H47.242L50.4256 15.8171H52.3922L55.5916 25.517ZM52.7006 21.4724L51.8649 18.9394C51.7761 18.6809 51.6107 18.0717 51.3666 17.1119H51.3363C51.1881 17.7231 51.0316 18.3324 50.8668 18.9394L50.0442 21.4724H52.7006ZM63.7794 21.9343C63.7794 23.1243 63.4516 24.0642 62.7958 24.7542C62.2086 25.369 61.4799 25.675 60.6096 25.675C59.67 25.675 58.9954 25.3449 58.5845 24.6833H58.5549V28.3674H56.9703V20.8257C56.9703 20.0777 56.9501 19.3099 56.9111 18.5229H58.305L58.3931 19.6315H58.4227C58.9514 18.7957 59.7531 18.3792 60.8292 18.3792C61.6706 18.3792 62.3733 18.705 62.9352 19.3574C63.4985 20.0104 63.7794 20.8689 63.7794 21.9343ZM62.1646 21.9909C62.1646 21.3102 62.0086 20.7492 61.6951 20.3072C61.3528 19.8468 60.8927 19.6159 60.3157 19.6159C59.9249 19.6159 59.5696 19.7448 59.2526 19.9977C58.9348 20.2527 58.7261 20.5856 58.6286 20.9986C58.5851 21.1529 58.5604 21.3117 58.5549 21.4717V22.6384C58.5549 23.1469 58.7138 23.5762 59.0323 23.9275C59.3501 24.2774 59.7639 24.4524 60.2716 24.4524C60.8689 24.4524 61.3333 24.2264 61.6655 23.7759C61.9984 23.3247 62.1646 22.7304 62.1646 21.9909ZM71.9817 21.9343C71.9817 23.1243 71.6546 24.0642 70.9981 24.7542C70.4116 25.369 69.6822 25.675 68.8126 25.675C67.873 25.675 67.1977 25.3449 66.7875 24.6833H66.7586V28.3674H65.1733V20.8257C65.1728 20.0578 65.1533 19.29 65.1148 18.5229H66.5087L66.5968 19.6315H66.6264C67.1537 18.7957 67.9561 18.3792 69.0329 18.3792C69.8736 18.3792 70.5756 18.705 71.1389 19.3574C71.7001 20.0104 71.9817 20.8689 71.9817 21.9343ZM70.3675 21.9909C70.3675 21.3102 70.2108 20.7492 69.8974 20.3072C69.5551 19.8468 69.0957 19.6159 68.5187 19.6159C68.1272 19.6159 67.7726 19.7448 67.4541 19.9977C67.1363 20.2527 66.9291 20.5856 66.8316 20.9986C66.7885 21.153 66.7638 21.3118 66.7579 21.4717V22.6384C66.7579 23.1469 66.9168 23.5762 67.2338 23.9275C67.5516 24.2767 67.9647 24.4524 68.4746 24.4524C69.0719 24.4524 69.5363 24.2264 69.8685 23.7759C70.2007 23.3247 70.3675 22.7304 70.3675 21.9909ZM81.1532 22.797C81.1532 23.6222 80.8607 24.2937 80.2743 24.8115C79.6301 25.3782 78.733 25.6615 77.5804 25.6615C76.5166 25.6615 75.6629 25.4597 75.0172 25.0566L75.3841 23.7611C76.0803 24.174 76.843 24.3809 77.675 24.3809C78.2716 24.3809 78.7359 24.2484 79.0696 23.9842C79.4018 23.7207 79.5679 23.3665 79.5679 22.9245C79.5679 22.5307 79.4314 22.1992 79.157 21.93C78.884 21.6609 78.4283 21.4115 77.7927 21.1806C76.0608 20.5467 75.1956 19.6187 75.1956 18.399C75.1956 17.6014 75.4989 16.9476 76.1063 16.439C76.7108 15.929 77.5183 15.6747 78.5272 15.6747C79.4271 15.6747 80.1753 15.8292 80.7719 16.1352L80.3754 17.4031C79.8186 17.1056 79.1881 16.9568 78.4824 16.9568C77.9256 16.9568 77.4901 17.0914 77.1781 17.3592C77.0514 17.4689 76.9503 17.6042 76.8819 17.7558C76.8135 17.9074 76.7793 18.0717 76.7816 18.2375C76.7816 18.6214 76.9326 18.9387 77.2359 19.1874C77.4995 19.4176 77.979 19.6669 78.6745 19.9361C79.5253 20.2718 80.1508 20.6657 80.5523 21.1154C80.9532 21.5645 81.1532 22.1262 81.1532 22.797ZM86.3915 19.6889H84.6452V23.0846C84.6452 23.9488 84.9528 24.3809 85.5696 24.3809C85.8527 24.3809 86.0874 24.3561 86.2731 24.3079L86.3171 25.488C86.0051 25.6027 85.5942 25.6601 85.085 25.6601C84.4595 25.6601 83.9706 25.4731 83.6174 25.0991C83.2657 24.7237 83.0888 24.0961 83.0888 23.2135V19.6874H82.0481V18.5215H83.0888V17.2409L84.6452 16.7804V18.5215H86.3915V19.6889ZM94.2717 21.9626C94.2717 23.0379 93.9582 23.9204 93.3321 24.6104C92.6763 25.3215 91.8053 25.6757 90.719 25.6757C89.6725 25.6757 88.8398 25.3357 88.2187 24.6543C87.5969 23.9736 87.2863 23.1144 87.2863 22.0781C87.2863 20.9943 87.6063 20.1068 88.2476 19.4162C88.8875 18.7255 89.7506 18.3799 90.8368 18.3799C91.8833 18.3799 92.7254 18.7199 93.3602 19.402C93.9683 20.0629 94.2717 20.9164 94.2717 21.9626ZM92.6279 22.0122C92.6279 21.3676 92.487 20.8151 92.2025 20.3533C91.8703 19.7951 91.3958 19.516 90.7804 19.516C90.1434 19.516 89.6595 19.7958 89.3273 20.3533C89.0428 20.8151 88.9019 21.3775 88.9019 22.0419C88.9019 22.6865 89.0428 23.2404 89.3273 23.7009C89.6697 24.259 90.1485 24.5374 90.766 24.5374C91.3712 24.5374 91.8457 24.2541 92.1888 23.686C92.4806 23.2164 92.6279 22.6568 92.6279 22.0122ZM99.4218 19.8893C99.2571 19.8603 99.0901 19.846 98.9228 19.8468C98.3652 19.8468 97.934 20.0522 97.6307 20.4659C97.3671 20.8307 97.2349 21.2911 97.2349 21.8472V25.517H95.6511L95.6656 20.7259C95.6677 19.9914 95.6479 19.257 95.6063 18.5237H96.9865L97.0443 19.8624H97.0883C97.2552 19.402 97.5195 19.0315 97.8806 18.7539C98.2113 18.5112 98.6131 18.3798 99.0261 18.3792C99.1719 18.3792 99.3041 18.3898 99.4218 18.4075V19.8893ZM106.508 21.6892C106.508 21.9676 106.489 22.202 106.45 22.394H101.697C101.716 23.0853 101.945 23.6137 102.387 23.9778C102.787 24.3037 103.305 24.4666 103.941 24.4666C104.645 24.4666 105.287 24.3568 105.865 24.1358L106.113 25.2146C105.438 25.5036 104.641 25.6467 103.722 25.6467C102.616 25.6467 101.748 25.3279 101.116 24.6904C100.486 24.0529 100.17 23.1958 100.17 22.1213C100.17 21.0666 100.464 20.1882 101.052 19.4877C101.667 18.7397 102.498 18.3664 103.545 18.3664C104.573 18.3664 105.351 18.7397 105.879 19.4877C106.298 20.082 106.508 20.8165 106.508 21.6892ZM104.997 21.2862C105.007 20.8257 104.904 20.4277 104.69 20.0912C104.415 19.6591 103.994 19.4438 103.427 19.4438C102.909 19.4438 102.488 19.6542 102.166 20.077C101.902 20.4128 101.745 20.8158 101.697 21.2854L104.997 21.2862ZM52.1769 9.85007C52.1769 10.7072 51.9148 11.3539 51.3912 11.7874C50.9058 12.1876 50.2161 12.3881 49.3227 12.3881C48.942 12.3912 48.5615 12.3723 48.1831 12.3314V7.64361C48.5969 7.57774 49.0425 7.54445 49.5249 7.54445C50.3757 7.54445 51.0171 7.72578 51.4497 8.08845C51.9336 8.49928 52.1769 9.08578 52.1769 9.85007ZM51.3558 9.87132C51.3558 9.31457 51.2056 8.88816 50.9058 8.59066C50.6054 8.29457 50.167 8.14582 49.5892 8.14582C49.3437 8.14582 49.1349 8.16141 48.9623 8.19541V11.7584C49.0577 11.7732 49.2332 11.7796 49.4881 11.7796C50.0847 11.7796 50.544 11.6174 50.8683 11.2923C51.1926 10.9672 51.3558 10.4939 51.3558 9.87132ZM56.5312 10.5995C56.5312 11.1279 56.3774 11.5607 56.0697 11.9C55.7476 12.2492 55.3201 12.4242 54.7863 12.4242C54.2721 12.4242 53.8626 12.257 53.5571 11.9213C53.2523 11.5869 53.0999 11.1648 53.0999 10.6562C53.0999 10.1242 53.2574 9.68716 53.5723 9.34857C53.8872 9.00928 54.3111 8.83928 54.8448 8.83928C55.3591 8.83928 55.7722 9.00645 56.0849 9.34078C56.3824 9.66661 56.5312 10.0859 56.5312 10.5995ZM55.7238 10.6243C55.7238 10.3069 55.6537 10.0349 55.5143 9.80828C55.3511 9.53416 55.1186 9.39745 54.8159 9.39745C54.5032 9.39745 54.2656 9.53416 54.1024 9.80828C53.9623 10.0349 53.8929 10.3112 53.8929 10.6378C53.8929 10.9551 53.963 11.2271 54.1024 11.4538C54.2707 11.7272 54.5054 11.8646 54.8087 11.8646C55.1063 11.8646 55.3396 11.7251 55.5078 11.4467C55.6523 11.2151 55.7238 10.9417 55.7238 10.6243ZM62.3697 8.90941L61.2741 12.3449H60.5605L60.1062 10.8531C59.9931 10.488 59.8991 10.1176 59.8246 9.74311H59.8101C59.7429 10.1194 59.6488 10.4905 59.5284 10.8538L59.0467 12.3456H58.3245L57.2939 8.91011H58.0941L58.4906 10.5429C58.5867 10.9289 58.6654 11.2972 58.7289 11.6457H58.7427C58.8004 11.3589 58.8965 10.9927 59.0316 10.5499L59.5292 8.91011H60.1633L60.6399 10.5152C60.7555 10.9069 60.8487 11.2838 60.9209 11.6464H60.9426C60.9953 11.293 61.0747 10.9162 61.1802 10.5152L61.6056 8.91011L62.3697 8.90941ZM66.4076 12.3456H65.6283V10.3778C65.6283 9.77145 65.3936 9.46828 64.9227 9.46828C64.8157 9.46518 64.7094 9.48609 64.6119 9.52943C64.5144 9.57276 64.4283 9.63737 64.3601 9.71832C64.2164 9.88478 64.1434 10.0817 64.1434 10.3069V12.3449H63.3649V9.89116C63.3649 9.59012 63.3555 9.26216 63.3367 8.90799H64.0214L64.0575 9.44561H64.0792C64.1702 9.27845 64.3052 9.14103 64.4829 9.03053C64.6938 8.90303 64.9307 8.83786 65.1885 8.83786C65.5157 8.83786 65.7879 8.94128 66.0046 9.14882C66.2733 9.40311 66.4076 9.78278 66.4076 10.2871V12.3456ZM68.5555 12.3456H67.7777V7.33266H68.5555V12.3456ZM73.1409 10.5995C73.1409 11.1279 72.9871 11.5607 72.6794 11.9C72.3566 12.2492 71.9283 12.4242 71.396 12.4242C70.8811 12.4242 70.4716 12.257 70.1668 11.9213C69.862 11.5869 69.7096 11.1648 69.7096 10.6562C69.7096 10.1242 69.8663 9.68716 70.1812 9.34857C70.4968 9.00928 70.92 8.83928 71.453 8.83928C71.968 8.83928 72.3804 9.00645 72.6945 9.34078C72.9914 9.66661 73.1409 10.0859 73.1409 10.5995ZM72.332 10.6243C72.332 10.3069 72.2627 10.0349 72.1233 9.80828C71.9608 9.53416 71.7275 9.39745 71.4256 9.39745C71.1122 9.39745 70.8746 9.53416 70.7113 9.80828C70.5719 10.0349 70.5026 10.3112 70.5026 10.6378C70.5026 10.9551 70.5727 11.2271 70.7121 11.4538C70.8803 11.7272 71.1151 11.8646 71.4184 11.8646C71.7152 11.8646 71.9478 11.7251 72.1161 11.4467C72.2605 11.2151 72.332 10.9416 72.332 10.6243ZM76.9102 12.3456H76.2111L76.1533 11.9496H76.1316C75.8918 12.2655 75.5509 12.4242 75.1082 12.4242C74.7774 12.4242 74.5095 12.3194 74.3087 12.1125C74.2181 12.0195 74.1471 11.9097 74.1 11.7896C74.0529 11.6694 74.0306 11.5414 74.0343 11.4127C74.0343 10.9927 74.2127 10.6725 74.5716 10.4514C74.9298 10.2297 75.4339 10.1214 76.0825 10.1256V10.0619C76.0825 9.60924 75.8398 9.38328 75.3545 9.38328C75.0093 9.38328 74.7045 9.46828 74.4416 9.63828L74.2834 9.13607C74.6084 8.93845 75.0107 8.83928 75.4852 8.83928C76.4003 8.83928 76.8596 9.31386 76.8596 10.2609V11.526C76.8596 11.8696 76.8769 12.143 76.9102 12.3456ZM76.102 11.1648V10.6349C75.2426 10.6208 74.8128 10.8517 74.8128 11.3277C74.8128 11.5069 74.8619 11.6408 74.9623 11.7307C75.0671 11.8214 75.2033 11.8693 75.3429 11.8646C75.5141 11.8646 75.6737 11.8115 75.8196 11.7059C75.908 11.645 75.9799 11.5639 76.0291 11.4696C76.0783 11.3753 76.1033 11.2707 76.102 11.1648ZM81.3359 12.3456H80.6448L80.6079 11.7938H80.587C80.366 12.2138 79.9897 12.4242 79.4618 12.4242C79.0393 12.4242 78.6876 12.2613 78.4088 11.9354C78.1307 11.611 77.9913 11.1889 77.9913 10.6704C77.9913 10.1143 78.1423 9.66449 78.4456 9.32024C78.7388 8.99936 79.0985 8.83857 79.5268 8.83857C79.9969 8.83857 80.3263 8.99441 80.5141 9.30536H80.5285V7.33266H81.3085V11.4198C81.3085 11.7548 81.3172 12.0629 81.3359 12.3456ZM80.5285 10.8963V10.3239C80.5362 10.1918 80.5129 10.0596 80.4603 9.93765C80.4077 9.8157 80.3272 9.70722 80.2252 9.62057C80.0817 9.49623 79.8959 9.42924 79.7044 9.43286C79.4141 9.43286 79.1866 9.5462 79.0191 9.77286C78.8537 9.99953 78.7699 10.2885 78.7699 10.642C78.7699 10.982 78.8493 11.2576 79.0089 11.4694C79.1772 11.696 79.4047 11.8087 79.6893 11.8087C79.9449 11.8087 80.1493 11.7144 80.3053 11.5253C80.4553 11.3493 80.5347 11.1256 80.5285 10.8963ZM87.997 10.5995C87.997 11.1279 87.8432 11.5607 87.5355 11.9C87.2134 12.2492 86.7866 12.4242 86.2521 12.4242C85.7386 12.4242 85.3291 12.257 85.0229 11.9213C84.7181 11.5869 84.5657 11.1648 84.5657 10.6562C84.5657 10.1242 84.7232 9.68716 85.0381 9.34857C85.3529 9.00928 85.7769 8.83928 86.3113 8.83928C86.8248 8.83928 87.2387 9.00645 87.5507 9.34078C87.8482 9.66661 87.997 10.0859 87.997 10.5995ZM87.1903 10.6243C87.1903 10.3069 87.1202 10.0349 86.9816 9.80828C86.8169 9.53416 86.5851 9.39745 86.2817 9.39745C85.9697 9.39745 85.7321 9.53416 85.5682 9.80828C85.4281 10.0349 85.3587 10.3112 85.3587 10.6378C85.3587 10.9551 85.4288 11.2271 85.5682 11.4538C85.7364 11.7272 85.9712 11.8646 86.2745 11.8646C86.572 11.8646 86.8061 11.7251 86.9736 11.4467C87.1173 11.2151 87.1903 10.9417 87.1903 10.6243ZM92.1852 12.3456H91.4073V10.3778C91.4073 9.77145 91.1719 9.46828 90.7003 9.46828C90.5934 9.46513 90.4871 9.48602 90.3897 9.52936C90.2924 9.57271 90.2064 9.63734 90.1384 9.71832C89.9939 9.88478 89.9224 10.0817 89.9224 10.3069V12.3449H89.1424V9.89116C89.1424 9.59012 89.1338 9.26216 89.115 8.90799H89.7989L89.8351 9.44561H89.8567C89.9522 9.2752 90.0914 9.13214 90.2604 9.03053C90.472 8.90303 90.7075 8.83786 90.9668 8.83786C91.2932 8.83786 91.5655 8.94128 91.7814 9.14882C92.0516 9.40311 92.1852 9.78278 92.1852 10.2871V12.3456ZM97.4263 9.48174H96.569V11.1506C96.569 11.5756 96.7214 11.7874 97.0233 11.7874C97.1627 11.7874 97.279 11.7754 97.37 11.752L97.3902 12.3307C97.2364 12.3874 97.0342 12.4157 96.785 12.4157C96.4773 12.4157 96.2383 12.3243 96.0649 12.1409C95.8909 11.9567 95.8049 11.6479 95.8049 11.2144V9.48174H95.2929V8.90941H95.8049V8.2797L96.5683 8.05374V8.9087H97.4256L97.4263 9.48174ZM101.55 12.3456H100.77V10.3919C100.77 9.7757 100.535 9.46828 100.065 9.46828C99.7042 9.46828 99.4572 9.64678 99.3222 10.0038C99.2963 10.0931 99.2839 10.1857 99.2853 10.2786V12.3449H98.5075V7.33266H99.2853V9.40382H99.3005C99.546 9.02699 99.897 8.83928 100.353 8.83928C100.676 8.83928 100.942 8.9427 101.154 9.15024C101.418 9.40878 101.55 9.79411 101.55 10.3027V12.3456ZM105.803 10.4649C105.803 10.6024 105.793 10.7171 105.774 10.8113H103.439C103.449 11.1513 103.56 11.4099 103.777 11.5891C103.975 11.7492 104.23 11.8299 104.542 11.8299C104.887 11.8299 105.202 11.7754 105.486 11.667L105.608 12.1982C105.276 12.3392 104.885 12.41 104.433 12.41C103.889 12.41 103.463 12.2528 103.154 11.9397C102.842 11.6259 102.688 11.2059 102.688 10.6782C102.688 10.1596 102.832 9.72824 103.121 9.38399C103.423 9.01707 103.831 8.83291 104.346 8.83291C104.85 8.83291 105.233 9.01707 105.491 9.38399C105.7 9.67582 105.803 10.0364 105.803 10.4649ZM105.06 10.2673C105.071 10.0614 105.018 9.85707 104.909 9.68078C104.774 9.46828 104.568 9.36203 104.29 9.36203C104.035 9.36203 103.828 9.46545 103.67 9.6737C103.538 9.84652 103.458 10.0521 103.439 10.2673H105.06Z" fill="white"/>
</g>
</g>
<defs>
<clipPath id="clip0_57_19">
<rect width="130" height="34" fill="white" transform="translate(0.5 0.5)"/>
</clipPath>
</defs>
</svg>
