<svg width="130" height="34" viewBox="0 0 130 34" fill="none" xmlns="http://www.w3.org/2000/svg">
<g clip-path="url(#clip0_437_85)">
<path d="M5.77778 0.5H124.222C127.146 0.5 129.5 2.8223 129.5 5.66667V28.3333C129.5 31.1777 127.146 33.5 124.222 33.5H5.77778C2.85374 33.5 0.5 31.1777 0.5 28.3333V5.66667C0.5 2.8223 2.85374 0.5 5.77778 0.5Z" fill="#121025" stroke="#575787"/>
<path d="M37.6146 16.4744C37.5929 14.1256 39.5754 12.9823 39.6664 12.9292C38.5433 11.3234 36.8028 11.1038 36.1911 11.0868C34.7293 10.936 33.3116 11.9439 32.5669 11.9439C31.8072 11.9439 30.6603 11.101 29.4246 11.1258C27.8342 11.1499 26.3464 12.0537 25.5303 13.4555C23.8461 16.3151 25.1021 20.5176 26.7155 22.8282C27.5229 23.9601 28.4654 25.2245 29.7004 25.1798C30.908 25.131 31.3587 24.4248 32.8161 24.4248C34.2606 24.4248 34.6838 25.1798 35.9433 25.1515C37.239 25.131 38.0551 24.0146 38.8337 22.8721C39.7668 21.5744 40.1409 20.2966 40.1561 20.2314C40.1257 20.2208 37.6398 19.2901 37.6146 16.4744ZM35.2363 9.56605C35.8863 8.76918 36.3304 7.68543 36.2069 6.58539C35.2666 6.62647 34.0908 7.22289 33.4141 8.00205C32.8147 8.68914 32.2802 9.81468 32.4174 10.8729C33.4741 10.9508 34.5581 10.3502 35.2363 9.56605ZM55.0916 25.0169H53.4038L52.4793 22.168H49.2654L48.3851 25.0169H46.742L49.9256 15.317H51.8922L55.0916 25.0169ZM52.2006 20.9723L51.3649 18.4393C51.2761 18.1808 51.1107 17.5716 50.8666 16.6118H50.8363C50.6881 17.223 50.5316 17.8323 50.3668 18.4393L49.5442 20.9723H52.2006ZM63.2794 21.4342C63.2794 22.6242 62.9516 23.5641 62.2958 24.2541C61.7086 24.8689 60.9799 25.1749 60.1096 25.1749C59.17 25.1749 58.4954 24.8448 58.0845 24.1832H58.0549V27.8673H56.4703V20.3256C56.4703 19.5776 56.4501 18.8098 56.4111 18.0228H57.805L57.8931 19.1314H57.9227C58.4514 18.2956 59.2531 17.8791 60.3292 17.8791C61.1706 17.8791 61.8733 18.2049 62.4352 18.8573C62.9985 19.5103 63.2794 20.3688 63.2794 21.4342ZM61.6646 21.4908C61.6646 20.8101 61.5086 20.2491 61.1951 19.8071C60.8528 19.3467 60.3927 19.1158 59.8157 19.1158C59.4249 19.1158 59.0696 19.2447 58.7526 19.4976C58.4348 19.7526 58.2261 20.0855 58.1286 20.4985C58.0851 20.6528 58.0604 20.8116 58.0549 20.9716V22.1383C58.0549 22.6468 58.2138 23.0761 58.5323 23.4274C58.8501 23.7773 59.2639 23.9523 59.7716 23.9523C60.3689 23.9523 60.8333 23.7263 61.1655 23.2758C61.4984 22.8246 61.6646 22.2303 61.6646 21.4908ZM71.4817 21.4342C71.4817 22.6242 71.1546 23.5641 70.4981 24.2541C69.9116 24.8689 69.1822 25.1749 68.3126 25.1749C67.373 25.1749 66.6977 24.8448 66.2875 24.1832H66.2586V27.8673H64.6733V20.3256C64.6728 19.5577 64.6533 18.7899 64.6148 18.0228H66.0087L66.0968 19.1314H66.1264C66.6537 18.2956 67.4561 17.8791 68.5329 17.8791C69.3736 17.8791 70.0756 18.2049 70.6389 18.8573C71.2001 19.5103 71.4817 20.3688 71.4817 21.4342ZM69.8675 21.4908C69.8675 20.8101 69.7108 20.2491 69.3974 19.8071C69.0551 19.3467 68.5957 19.1158 68.0187 19.1158C67.6272 19.1158 67.2726 19.2447 66.9541 19.4976C66.6363 19.7526 66.4291 20.0855 66.3316 20.4985C66.2885 20.6529 66.2638 20.8117 66.2579 20.9716V22.1383C66.2579 22.6468 66.4168 23.0761 66.7338 23.4274C67.0516 23.7766 67.4647 23.9523 67.9746 23.9523C68.5719 23.9523 69.0363 23.7263 69.3685 23.2758C69.7007 22.8246 69.8675 22.2303 69.8675 21.4908ZM80.6532 22.2969C80.6532 23.1221 80.3607 23.7936 79.7743 24.3114C79.1301 24.8781 78.233 25.1614 77.0804 25.1614C76.0166 25.1614 75.1629 24.9596 74.5172 24.5565L74.8841 23.261C75.5803 23.6739 76.343 23.8808 77.175 23.8808C77.7716 23.8808 78.2359 23.7483 78.5696 23.4841C78.9018 23.2206 79.0679 22.8664 79.0679 22.4244C79.0679 22.0306 78.9314 21.6991 78.657 21.4299C78.384 21.1608 77.9283 20.9114 77.2927 20.6805C75.5608 20.0466 74.6956 19.1186 74.6956 17.8989C74.6956 17.1013 74.9989 16.4475 75.6063 15.9389C76.2108 15.4289 77.0183 15.1746 78.0272 15.1746C78.9271 15.1746 79.6753 15.3291 80.2719 15.6351L79.8754 16.903C79.3186 16.6055 78.6881 16.4567 77.9824 16.4567C77.4256 16.4567 76.9901 16.5913 76.6781 16.8591C76.5514 16.9688 76.4503 17.1041 76.3819 17.2557C76.3135 17.4073 76.2793 17.5716 76.2816 17.7374C76.2816 18.1213 76.4326 18.4386 76.7359 18.6873C76.9995 18.9175 77.479 19.1668 78.1745 19.436C79.0253 19.7717 79.6508 20.1656 80.0523 20.6153C80.4532 21.0644 80.6532 21.6261 80.6532 22.2969ZM85.8915 19.1888H84.1452V22.5845C84.1452 23.4487 84.4528 23.8808 85.0696 23.8808C85.3527 23.8808 85.5874 23.856 85.7731 23.8078L85.8171 24.9879C85.5051 25.1026 85.0942 25.16 84.585 25.16C83.9595 25.16 83.4706 24.973 83.1174 24.599C82.7657 24.2236 82.5888 23.596 82.5888 22.7134V19.1873H81.5481V18.0214H82.5888V16.7408L84.1452 16.2803V18.0214H85.8915V19.1888ZM93.7717 21.4625C93.7717 22.5378 93.4582 23.4203 92.8321 24.1103C92.1763 24.8214 91.3053 25.1756 90.219 25.1756C89.1725 25.1756 88.3398 24.8356 87.7187 24.1542C87.0969 23.4735 86.7863 22.6143 86.7863 21.578C86.7863 20.4942 87.1063 19.6067 87.7476 18.9161C88.3875 18.2254 89.2506 17.8798 90.3368 17.8798C91.3833 17.8798 92.2254 18.2198 92.8602 18.9019C93.4683 19.5628 93.7717 20.4163 93.7717 21.4625ZM92.1279 21.5121C92.1279 20.8675 91.987 20.315 91.7025 19.8532C91.3703 19.295 90.8958 19.0159 90.2804 19.0159C89.6434 19.0159 89.1595 19.2957 88.8273 19.8532C88.5428 20.315 88.4019 20.8774 88.4019 21.5418C88.4019 22.1864 88.5428 22.7403 88.8273 23.2008C89.1697 23.7589 89.6485 24.0373 90.266 24.0373C90.8712 24.0373 91.3457 23.754 91.6888 23.1859C91.9806 22.7163 92.1279 22.1567 92.1279 21.5121ZM98.9218 19.3892C98.7571 19.3602 98.5901 19.3459 98.4228 19.3467C97.8652 19.3467 97.434 19.5521 97.1307 19.9658C96.8671 20.3306 96.7349 20.791 96.7349 21.3471V25.0169H95.1511L95.1656 20.2258C95.1677 19.4913 95.1479 18.7569 95.1063 18.0236H96.4865L96.5443 19.3623H96.5883C96.7552 18.9019 97.0195 18.5314 97.3806 18.2538C97.7113 18.0111 98.1131 17.8797 98.5261 17.8791C98.6719 17.8791 98.8041 17.8897 98.9218 17.9074V19.3892ZM106.008 21.1891C106.008 21.4675 105.989 21.7019 105.95 21.8939H101.197C101.216 22.5852 101.445 23.1136 101.887 23.4777C102.287 23.8036 102.805 23.9665 103.441 23.9665C104.145 23.9665 104.787 23.8567 105.365 23.6357L105.613 24.7145C104.938 25.0035 104.141 25.1466 103.222 25.1466C102.116 25.1466 101.248 24.8278 100.616 24.1903C99.9864 23.5528 99.6701 22.6957 99.6701 21.6212C99.6701 20.5665 99.964 19.6881 100.552 18.9876C101.167 18.2396 101.998 17.8663 103.045 17.8663C104.073 17.8663 104.851 18.2396 105.379 18.9876C105.798 19.5819 106.008 20.3164 106.008 21.1891ZM104.497 20.7861C104.507 20.3256 104.404 19.9276 104.19 19.5911C103.915 19.159 103.494 18.9437 102.927 18.9437C102.409 18.9437 101.988 19.1541 101.666 19.5769C101.402 19.9127 101.245 20.3157 101.197 20.7853L104.497 20.7861ZM51.6769 9.35001C51.6769 10.2071 51.4148 10.8538 50.8912 11.2873C50.4058 11.6875 49.7161 11.888 48.8227 11.888C48.442 11.8911 48.0615 11.8722 47.6831 11.8313V7.14355C48.0969 7.07768 48.5425 7.04439 49.0249 7.04439C49.8757 7.04439 50.5171 7.22572 50.9497 7.58839C51.4336 7.99922 51.6769 8.58572 51.6769 9.35001ZM50.8558 9.37126C50.8558 8.81451 50.7056 8.3881 50.4058 8.0906C50.1054 7.79451 49.667 7.64576 49.0892 7.64576C48.8437 7.64576 48.6349 7.66135 48.4623 7.69535V11.2583C48.5577 11.2731 48.7332 11.2795 48.9881 11.2795C49.5847 11.2795 50.044 11.1173 50.3683 10.7922C50.6926 10.4671 50.8558 9.99389 50.8558 9.37126ZM56.0312 10.0994C56.0312 10.6278 55.8774 11.0606 55.5697 11.3999C55.2476 11.7491 54.8201 11.9241 54.2863 11.9241C53.7721 11.9241 53.3626 11.7569 53.0571 11.4212C52.7523 11.0868 52.5999 10.6647 52.5999 10.1561C52.5999 9.62414 52.7574 9.1871 53.0723 8.84851C53.3872 8.50922 53.8111 8.33922 54.3448 8.33922C54.8591 8.33922 55.2722 8.50639 55.5849 8.84072C55.8824 9.16655 56.0312 9.58589 56.0312 10.0994ZM55.2238 10.1242C55.2238 9.80689 55.1537 9.53489 55.0143 9.30822C54.8511 9.0341 54.6186 8.89739 54.3159 8.89739C54.0032 8.89739 53.7656 9.0341 53.6024 9.30822C53.4623 9.53489 53.3929 9.81114 53.3929 10.1377C53.3929 10.455 53.463 10.727 53.6024 10.9537C53.7707 11.2271 54.0054 11.3645 54.3087 11.3645C54.6063 11.3645 54.8396 11.225 55.0078 10.9466C55.1523 10.715 55.2238 10.4416 55.2238 10.1242ZM61.8697 8.40935L60.7741 11.8448H60.0605L59.6062 10.353C59.4931 9.98798 59.3991 9.61751 59.3246 9.24305H59.3101C59.2429 9.6193 59.1488 9.99044 59.0284 10.3537L58.5467 11.8455H57.8245L56.7939 8.41005H57.5941L57.9906 10.0428C58.0867 10.4288 58.1654 10.7971 58.2289 11.1456H58.2427C58.3004 10.8588 58.3965 10.4926 58.5316 10.0498L59.0292 8.41005H59.6633L60.1399 10.0151C60.2555 10.4068 60.3487 10.7837 60.4209 11.1463H60.4426C60.4953 10.7929 60.5747 10.4161 60.6802 10.0151L61.1056 8.41005L61.8697 8.40935ZM65.9076 11.8455H65.1283V9.87772C65.1283 9.27139 64.8936 8.96822 64.4227 8.96822C64.3157 8.96512 64.2094 8.98603 64.1119 9.02937C64.0144 9.0727 63.9283 9.13731 63.8601 9.21826C63.7164 9.38472 63.6434 9.58164 63.6434 9.80689V11.8448H62.8649V9.3911C62.8649 9.09006 62.8555 8.7621 62.8367 8.40793H63.5214L63.5575 8.94555H63.5792C63.6702 8.77839 63.8052 8.64097 63.9829 8.53047C64.1938 8.40297 64.4307 8.3378 64.6885 8.3378C65.0157 8.3378 65.2879 8.44122 65.5046 8.64876C65.7733 8.90305 65.9076 9.28272 65.9076 9.78706V11.8455ZM68.0555 11.8455H67.2777V6.8326H68.0555V11.8455ZM72.6409 10.0994C72.6409 10.6278 72.4871 11.0606 72.1794 11.3999C71.8566 11.7491 71.4283 11.9241 70.896 11.9241C70.3811 11.9241 69.9716 11.7569 69.6668 11.4212C69.362 11.0868 69.2096 10.6647 69.2096 10.1561C69.2096 9.62414 69.3663 9.1871 69.6812 8.84851C69.9968 8.50922 70.42 8.33922 70.953 8.33922C71.468 8.33922 71.8804 8.50639 72.1945 8.84072C72.4914 9.16655 72.6409 9.58589 72.6409 10.0994ZM71.832 10.1242C71.832 9.80689 71.7627 9.53489 71.6233 9.30822C71.4608 9.0341 71.2275 8.89739 70.9256 8.89739C70.6122 8.89739 70.3746 9.0341 70.2113 9.30822C70.0719 9.53489 70.0026 9.81114 70.0026 10.1377C70.0026 10.455 70.0727 10.727 70.2121 10.9537C70.3803 11.2271 70.6151 11.3645 70.9184 11.3645C71.2152 11.3645 71.4478 11.225 71.6161 10.9466C71.7605 10.715 71.8327 10.4408 71.8327 10.1235L71.832 10.1242ZM76.4102 11.8455H75.7111L75.6533 11.4495H75.6316C75.3918 11.7654 75.0509 11.9241 74.6082 11.9241C74.2774 11.9241 74.0095 11.8193 73.8087 11.6124C73.7181 11.5194 73.6471 11.4096 73.6 11.2895C73.5529 11.1693 73.5306 11.0413 73.5343 10.9126C73.5343 10.4926 73.7127 10.1724 74.0716 9.95139C74.4298 9.72968 74.9339 9.6213 75.5825 9.62555V9.5618C75.5825 9.10918 75.3398 8.88322 74.8545 8.88322C74.5093 8.88322 74.2045 8.96822 73.9416 9.13822L73.7834 8.63601C74.1084 8.43839 74.5107 8.33922 74.9852 8.33922C75.9003 8.33922 76.3596 8.8138 76.3596 9.76085V11.0259C76.3596 11.3695 76.3769 11.6429 76.4102 11.8455ZM75.602 10.6647V10.1348C74.7426 10.1207 74.3128 10.3516 74.3128 10.8276C74.3128 11.0068 74.3619 11.1407 74.4623 11.2306C74.5671 11.3213 74.7033 11.3692 74.8429 11.3645C75.0141 11.3645 75.1737 11.3114 75.3196 11.2058C75.408 11.1449 75.4799 11.0638 75.5291 10.9695C75.5783 10.8752 75.6033 10.7706 75.602 10.6647ZM80.8359 11.8455H80.1448L80.1079 11.2937H80.087C79.866 11.7137 79.4897 11.9241 78.9618 11.9241C78.5393 11.9241 78.1876 11.7612 77.9088 11.4353C77.6307 11.1109 77.4913 10.6888 77.4913 10.1703C77.4913 9.61422 77.6423 9.16443 77.9456 8.82018C78.2388 8.4993 78.5985 8.33851 79.0268 8.33851C79.4969 8.33851 79.8263 8.49435 80.0141 8.8053H80.0285V6.8326H80.8085V10.9197C80.8085 11.2547 80.8172 11.5628 80.8359 11.8455ZM80.0285 10.3962V9.82389C80.0362 9.6917 80.0129 9.55953 79.9603 9.43759C79.9077 9.31564 79.8272 9.20716 79.7252 9.12051C79.5817 8.99617 79.3959 8.92918 79.2044 8.9328C78.9141 8.9328 78.6866 9.04614 78.5191 9.2728C78.3537 9.49947 78.2699 9.78847 78.2699 10.1419C78.2699 10.4819 78.3493 10.7575 78.5089 10.9693C78.6772 11.1959 78.9047 11.3086 79.1893 11.3086C79.4449 11.3086 79.6493 11.2143 79.8053 11.0252C79.9553 10.8492 80.0347 10.6255 80.0285 10.3962ZM87.497 10.0994C87.497 10.6278 87.3432 11.0606 87.0355 11.3999C86.7134 11.7491 86.2866 11.9241 85.7521 11.9241C85.2386 11.9241 84.8291 11.7569 84.5229 11.4212C84.2181 11.0868 84.0657 10.6647 84.0657 10.1561C84.0657 9.62414 84.2232 9.1871 84.5381 8.84851C84.8529 8.50922 85.2769 8.33922 85.8113 8.33922C86.3248 8.33922 86.7387 8.50639 87.0507 8.84072C87.3482 9.16655 87.497 9.58589 87.497 10.0994ZM86.6903 10.1242C86.6903 9.80689 86.6202 9.53489 86.4816 9.30822C86.3169 9.0341 86.0851 8.89739 85.7817 8.89739C85.4697 8.89739 85.2321 9.0341 85.0682 9.30822C84.9281 9.53489 84.8587 9.81114 84.8587 10.1377C84.8587 10.455 84.9288 10.727 85.0682 10.9537C85.2364 11.2271 85.4712 11.3645 85.7745 11.3645C86.072 11.3645 86.3061 11.225 86.4736 10.9466C86.6173 10.715 86.6903 10.4416 86.6903 10.1242ZM91.6852 11.8455H90.9073V9.87772C90.9073 9.27139 90.6719 8.96822 90.2003 8.96822C90.0934 8.96507 89.9871 8.98596 89.8897 9.0293C89.7924 9.07265 89.7064 9.13728 89.6384 9.21826C89.4939 9.38472 89.4224 9.58164 89.4224 9.80689V11.8448H88.6424V9.3911C88.6424 9.09006 88.6338 8.7621 88.615 8.40793H89.2989L89.3351 8.94555H89.3567C89.4522 8.77514 89.5914 8.63208 89.7604 8.53047C89.972 8.40297 90.2075 8.3378 90.4668 8.3378C90.7932 8.3378 91.0655 8.44122 91.2814 8.64876C91.5516 8.90305 91.6852 9.28272 91.6852 9.78706V11.8455ZM96.9263 8.98168H96.069V10.6505C96.069 11.0755 96.2214 11.2873 96.5233 11.2873C96.6627 11.2873 96.779 11.2753 96.87 11.2519L96.8902 11.8306C96.7364 11.8873 96.5342 11.9156 96.285 11.9156C95.9773 11.9156 95.7383 11.8242 95.5649 11.6408C95.3909 11.4566 95.3049 11.1478 95.3049 10.7143V8.98168H94.7929V8.40935H95.3049V7.77964L96.0683 7.55368V8.40864H96.9256L96.9263 8.98168ZM101.05 11.8455H100.27V9.89189C100.27 9.27564 100.035 8.96822 99.5653 8.96822C99.2042 8.96822 98.9572 9.14672 98.8222 9.50372C98.7963 9.59309 98.7839 9.68568 98.7853 9.77855V11.8448H98.0075V6.8326H98.7853V8.90376H98.8005C99.046 8.52693 99.397 8.33922 99.8528 8.33922C100.176 8.33922 100.442 8.44264 100.654 8.65018C100.918 8.90872 101.05 9.29405 101.05 9.80264V11.8455ZM105.303 9.96485C105.303 10.1023 105.293 10.217 105.274 10.3112H102.939C102.949 10.6512 103.06 10.9098 103.277 11.089C103.475 11.2491 103.73 11.3298 104.042 11.3298C104.387 11.3298 104.702 11.2753 104.986 11.1669L105.108 11.6981C104.776 11.8391 104.385 11.9099 103.933 11.9099C103.389 11.9099 102.963 11.7527 102.654 11.4396C102.342 11.1258 102.188 10.7058 102.188 10.1781C102.188 9.65956 102.332 9.22818 102.621 8.88393C102.923 8.51701 103.331 8.33285 103.846 8.33285C104.35 8.33285 104.733 8.51701 104.991 8.88393C105.2 9.17576 105.303 9.5363 105.303 9.96485ZM104.56 9.76722C104.571 9.56131 104.518 9.35701 104.409 9.18072C104.274 8.96822 104.068 8.86197 103.79 8.86197C103.535 8.86197 103.328 8.96539 103.17 9.17364C103.038 9.34646 102.958 9.55208 102.939 9.76722H104.56Z" fill="white"/>
</g>
<defs>
<clipPath id="clip0_437_85">
<rect width="130" height="34" fill="white"/>
</clipPath>
</defs>
</svg>
