<svg width="57" height="57" viewBox="0 0 57 57" fill="none" xmlns="http://www.w3.org/2000/svg">
<path fill-rule="evenodd" clip-rule="evenodd" d="M28.4284 53.4489L30.3818 51.2455C32.5976 48.7101 34.5917 46.2982 36.3643 44.0097L37.8294 42.0784C43.943 33.8404 46.9998 27.3056 46.9998 22.4738C46.9998 12.1599 38.6851 3.79886 28.4284 3.79886C18.1716 3.79886 9.85693 12.1599 9.85693 22.4738C9.85693 27.3056 12.9137 33.8404 19.0273 42.0784L20.4924 44.0097C22.7715 46.952 25.4168 50.0984 28.4284 53.4489Z" stroke="#FFAF32" stroke-width="2" stroke-linecap="round" stroke-linejoin="round"/>
<path d="M28.4285 30.1084C32.7022 30.1084 36.1666 26.6439 36.1666 22.3703C36.1666 18.0967 32.7022 14.6322 28.4285 14.6322C24.1549 14.6322 20.6904 18.0967 20.6904 22.3703C20.6904 26.6439 24.1549 30.1084 28.4285 30.1084Z" stroke="#FFAF32" stroke-width="2" stroke-linecap="round" stroke-linejoin="round"/>
</svg>
