<svg width="131" height="35" viewBox="0 0 131 35" fill="none" xmlns="http://www.w3.org/2000/svg">
<g clip-path="url(#clip0_437_73)">
<path d="M5.82222 0.5H125.178C128.116 0.5 130.5 2.88692 130.5 5.83333V29.1667C130.5 32.1131 128.116 34.5 125.178 34.5H5.82222C2.88374 34.5 0.5 32.1131 0.5 29.1667V5.83333C0.5 2.88692 2.88374 0.5 5.82222 0.5Z" fill="#121025" stroke="#575787"/>
<path d="M65.3723 18.878C64.7123 18.8811 64.068 19.08 63.5208 19.4497C62.9735 19.8193 62.5477 20.3431 62.2973 20.9549C62.0469 21.5668 61.983 22.2392 62.1137 22.8874C62.2443 23.5356 62.5637 24.1305 63.0315 24.597C63.4993 25.0634 64.0946 25.3807 64.7421 25.5085C65.3896 25.6364 66.0605 25.5692 66.67 25.3154C67.2795 25.0617 67.8003 24.6327 68.1666 24.0826C68.533 23.5326 68.7285 22.8861 68.7285 22.2249C68.7349 21.7823 68.6524 21.3429 68.4858 20.9329C68.3192 20.5228 68.072 20.1506 67.7589 19.8384C67.4457 19.5261 67.073 19.2801 66.663 19.1151C66.253 18.9501 65.8141 18.8695 65.3723 18.878ZM65.3723 24.2566C64.9664 24.2851 64.5614 24.1905 64.2098 23.9852C63.8583 23.78 63.5765 23.4735 63.4011 23.1056C63.2257 22.7378 63.1648 22.3256 63.2263 21.9226C63.2878 21.5196 63.469 21.1445 63.7461 20.846C64.0232 20.5475 64.3836 20.3395 64.7803 20.2488C65.177 20.1583 65.5918 20.1893 65.9706 20.3381C66.3495 20.4868 66.6749 20.7463 66.9047 21.0828C67.1343 21.4192 67.2577 21.8172 67.2587 22.2249C67.2714 22.4832 67.2323 22.7414 67.1437 22.9844C67.0552 23.2273 66.9191 23.45 66.7432 23.6394C66.5674 23.8287 66.3556 23.9809 66.1201 24.0869C65.8846 24.1929 65.6304 24.2506 65.3723 24.2566ZM58.0547 18.878C57.3943 18.8795 56.7492 19.0771 56.2009 19.4459C55.6526 19.8145 55.2257 20.3379 54.9741 20.9495C54.7225 21.5612 54.6574 22.2339 54.7872 22.8826C54.9169 23.5313 55.2358 24.127 55.7032 24.5942C56.1707 25.0615 56.7659 25.3795 57.4137 25.508C58.0615 25.6365 58.7327 25.5698 59.3427 25.3162C59.9526 25.0626 60.4739 24.6337 60.8406 24.0834C61.2073 23.5333 61.403 22.8865 61.403 22.2249C61.4094 21.7823 61.3269 21.3429 61.1603 20.9329C60.9937 20.5228 60.7465 20.1506 60.4333 19.8384C60.1202 19.5261 59.7475 19.2801 59.3375 19.1151C58.9275 18.9501 58.4886 18.8695 58.0468 18.878H58.0547ZM58.0547 24.2566C57.6486 24.2867 57.2428 24.1935 56.8903 23.9893C56.5378 23.7851 56.2548 23.4793 56.0782 23.1117C55.9015 22.744 55.8395 22.3317 55.9 21.9282C55.9606 21.5248 56.141 21.149 56.4177 20.8497C56.6944 20.5503 57.0547 20.3414 57.4516 20.2501C57.8484 20.1588 58.2635 20.1894 58.6429 20.3378C59.0222 20.4862 59.3481 20.7455 59.5783 21.0821C59.8085 21.4187 59.9321 21.8169 59.9332 22.2249C59.9459 22.4832 59.9068 22.7414 59.8182 22.9844C59.7297 23.2273 59.5935 23.45 59.4177 23.6394C59.2419 23.8287 59.03 23.9809 58.7946 24.0869C58.5591 24.1929 58.3049 24.2506 58.0468 24.2566H58.0547ZM49.3379 19.9096V21.3271H52.7334C52.6802 21.9947 52.4032 22.6247 51.9474 23.1147C51.6077 23.4615 51.1994 23.733 50.7486 23.912C50.2978 24.0911 49.8146 24.1736 49.3301 24.1542C48.3294 24.1542 47.3699 23.756 46.6623 23.0471C45.9548 22.3383 45.5573 21.3768 45.5573 20.3742C45.5573 19.3717 45.9548 18.4102 46.6623 17.7014C47.3699 16.9925 48.3294 16.5942 49.3301 16.5942C50.2872 16.5786 51.2116 16.9439 51.9003 17.6101L52.8985 16.61C52.4336 16.1383 51.8789 15.7649 51.2673 15.5119C50.6556 15.259 49.9995 15.1316 49.3379 15.1374C48.6392 15.1101 47.9421 15.2245 47.2885 15.4736C46.635 15.7227 46.0382 16.1015 45.5343 16.5872C45.0303 17.0729 44.6293 17.6555 44.3555 18.3001C44.0816 18.9448 43.9404 19.6381 43.9404 20.3388C43.9404 21.0394 44.0816 21.7328 44.3555 22.3775C44.6293 23.0221 45.0303 23.6047 45.5343 24.0904C46.0382 24.5761 46.635 24.9549 47.2885 25.204C47.9421 25.4531 48.6392 25.5675 49.3379 25.5402C50.0107 25.5707 50.6822 25.4565 51.3072 25.2051C51.9322 24.9538 52.4963 24.5713 52.9614 24.0834C53.7849 23.1769 54.2245 21.9853 54.1875 20.7601C54.1901 20.4617 54.1637 20.1637 54.1089 19.8702L49.3379 19.9096ZM84.9518 21.0121C84.7466 20.4079 84.363 19.8803 83.8521 19.4992C83.3412 19.1181 82.727 18.9015 82.0909 18.878C81.6608 18.8771 81.235 18.9647 80.8399 19.1352C80.4454 19.3056 80.0895 19.5554 79.7948 19.8691C79.5 20.1828 79.273 20.5537 79.1267 20.9589C78.9811 21.3641 78.92 21.795 78.9469 22.2249C78.9367 22.665 79.016 23.1026 79.1791 23.5114C79.3421 23.9203 79.5859 24.292 79.8952 24.6044C80.2052 24.9167 80.5742 25.1634 80.981 25.3297C81.3879 25.4958 81.8238 25.5782 82.2634 25.5717C82.8136 25.5747 83.3551 25.441 83.8405 25.1827C84.3266 24.9242 84.7407 24.5493 85.0457 24.0912L83.906 23.3037C83.7364 23.5878 83.4955 23.8228 83.2073 23.9857C82.9191 24.1486 82.5938 24.2338 82.2634 24.233C81.9228 24.246 81.5866 24.1561 81.2976 23.9749C81.0087 23.7937 80.7816 23.5296 80.6441 23.2171L85.117 21.3665L84.9518 21.0121ZM80.393 22.1304C80.377 21.8868 80.4097 21.6425 80.4891 21.4117C80.5684 21.181 80.6936 20.9684 80.8559 20.7866C81.0182 20.6047 81.2154 20.4571 81.4352 20.3525C81.6557 20.2479 81.8944 20.1884 82.1375 20.1774C82.3915 20.1606 82.644 20.2189 82.8645 20.3449C83.0858 20.4709 83.2648 20.6591 83.3798 20.8861L80.393 22.1304ZM76.7614 25.3749H78.2315V15.5311H76.7614V25.3749ZM74.3561 19.6261H74.3015C74.0795 19.378 73.8081 19.1795 73.5053 19.0438C73.2018 18.9081 72.8729 18.8382 72.5406 18.8386C71.6817 18.8803 70.8717 19.2516 70.2785 19.8754C69.6854 20.4992 69.3545 21.3278 69.3545 22.1894C69.3545 23.051 69.6854 23.8796 70.2785 24.5034C70.8717 25.1272 71.6817 25.4985 72.5406 25.5402C72.8736 25.5459 73.204 25.4783 73.5082 25.3422C73.8124 25.2061 74.0832 25.005 74.3015 24.7527H74.3488V25.2331C74.3488 26.5167 73.6647 27.2019 72.5642 27.2019C72.1977 27.1933 71.8421 27.0756 71.5426 26.8638C71.243 26.6521 71.0131 26.3558 70.8822 26.0127L69.601 26.5482C69.8422 27.136 70.2531 27.6382 70.7811 27.9903C71.309 28.3425 71.93 28.5287 72.5642 28.5249C74.2855 28.5249 75.7083 27.509 75.7083 25.0362V19.0749H74.3561V19.6261ZM72.6743 24.2566C72.1673 24.2118 71.6954 23.9784 71.3517 23.6023C71.0079 23.2262 70.8173 22.7348 70.8173 22.2249C70.8173 21.7149 71.0079 21.2235 71.3517 20.8474C71.6954 20.4713 72.1673 20.2379 72.6743 20.1931C72.926 20.206 73.172 20.2692 73.3983 20.379C73.6254 20.4887 73.8277 20.6428 73.9937 20.8322C74.1603 21.0215 74.2869 21.2422 74.367 21.4815C74.4463 21.7206 74.4776 21.9734 74.4587 22.2249C74.4798 22.4774 74.45 22.7317 74.3706 22.9723C74.2913 23.213 74.164 23.4349 73.9966 23.6249C73.8284 23.8148 73.6247 23.9687 73.3961 24.0773C73.1676 24.1859 72.9195 24.2468 72.6664 24.2566H72.6743ZM91.8373 15.5311H88.3236V25.3749H89.7937V21.6421H91.8446C92.2638 21.6722 92.6844 21.6156 93.0804 21.4757C93.4763 21.3359 93.8394 21.1157 94.1473 20.829C94.4544 20.5423 94.6997 20.1953 94.867 19.8095C95.0352 19.4237 95.1218 19.0074 95.1218 18.5866C95.1218 18.1658 95.0352 17.7495 94.867 17.3637C94.6997 16.9779 94.4544 16.6309 94.1473 16.3442C93.8394 16.0575 93.4763 15.8374 93.0804 15.6975C92.6844 15.5576 92.2638 15.5009 91.8446 15.5311H91.8373ZM91.8373 20.2561H89.7857V16.9014H91.8686C92.3155 16.9014 92.7441 17.0794 93.0607 17.3961C93.3766 17.7129 93.5541 18.1426 93.5541 18.5906C93.5541 19.0386 93.3766 19.4682 93.0607 19.785C92.7441 20.1018 92.3155 20.2797 91.8686 20.2797L91.8373 20.2561ZM100.9 18.8386C100.365 18.8065 99.8319 18.9319 99.3669 19.199C98.9018 19.4663 98.5249 19.8638 98.2825 20.3427L99.5867 20.8861C99.7155 20.6486 99.9105 20.4536 100.148 20.325C100.385 20.1963 100.654 20.1396 100.923 20.1616C101.11 20.1398 101.298 20.1554 101.479 20.2076C101.659 20.2597 101.828 20.3473 101.975 20.4654C102.121 20.5834 102.242 20.7294 102.332 20.8949C102.421 21.0605 102.477 21.2422 102.495 21.4295V21.5319C102.023 21.2815 101.496 21.1516 100.962 21.1539C99.5554 21.1539 98.1326 21.9414 98.1326 23.3667C98.1464 23.6707 98.2214 23.9687 98.3524 24.2433C98.4826 24.5178 98.6675 24.7633 98.8946 24.9652C99.1216 25.1671 99.3873 25.3213 99.6747 25.4188C99.9622 25.5162 100.266 25.5548 100.569 25.5324C100.94 25.559 101.31 25.4853 101.642 25.319C101.974 25.1528 102.255 24.9 102.456 24.5874H102.503V25.3749H103.918V21.587C103.918 19.8624 102.613 18.8622 100.939 18.8622L100.9 18.8386ZM100.719 24.233C100.239 24.233 99.5714 23.9889 99.5714 23.3982C99.5714 22.6107 100.405 22.3509 101.143 22.3509C101.61 22.3393 102.071 22.4535 102.48 22.6816C102.43 23.108 102.229 23.5021 101.913 23.7916C101.596 24.081 101.186 24.2462 100.758 24.2566L100.719 24.233ZM109.074 19.0749L107.392 23.3431H107.345L105.6 19.0749H104.028L106.645 25.0441L105.152 28.3595H106.685L110.709 19.0749H109.074ZM95.8612 25.3749H97.3313V15.5311H95.8612V25.3749Z" fill="white"/>
<path d="M49.0369 9.86313C49.0503 10.152 49.0049 10.4405 48.9036 10.7112C48.8023 10.982 48.647 11.2293 48.4474 11.4381C48.2245 11.6701 47.9553 11.8524 47.6573 11.9732C47.3594 12.0939 47.0394 12.1505 46.7182 12.139C46.2309 12.1351 45.7555 11.9873 45.3517 11.714C44.9478 11.4407 44.6335 11.054 44.448 10.6025C44.2625 10.1509 44.2142 9.65466 44.3091 9.17567C44.4039 8.69676 44.6376 8.25648 44.9812 7.91013C45.2069 7.6792 45.4776 7.49713 45.7763 7.37521C46.0751 7.25334 46.3957 7.19415 46.7182 7.20135C47.0505 7.20024 47.3795 7.26725 47.685 7.39826C47.9694 7.51317 48.2226 7.694 48.4238 7.92588L48.0073 8.34325C47.8503 8.1563 47.6522 8.00842 47.4285 7.91137C47.2048 7.81432 46.9617 7.77079 46.7182 7.78413C46.4727 7.78289 46.2295 7.83138 46.0031 7.92661C45.7768 8.02191 45.572 8.16198 45.4009 8.33844C45.2299 8.51497 45.0962 8.72424 45.0079 8.95371C44.9195 9.18325 44.8784 9.42825 44.8868 9.67413C44.8817 10.0412 44.9852 10.4015 45.1842 10.7098C45.3833 11.0181 45.669 11.2603 46.0053 11.406C46.3416 11.5517 46.7134 11.5944 47.074 11.5287C47.4344 11.4629 47.7674 11.2916 48.0308 11.0365C48.2727 10.7739 48.4122 10.4328 48.4238 10.0758H46.7182V9.50875H49.0055C49.0264 9.62571 49.037 9.74428 49.0369 9.86313ZM52.6368 7.89438H50.5146V9.39063H52.4482V9.95763H50.5146V11.4539H52.6368V12.0366H49.8858V7.31163H52.6368V7.89438ZM55.2149 12.0366H54.6097V7.89438H53.2892V7.31163H56.5668V7.89438H55.2149V12.0366ZM58.8776 12.0366V7.31163H59.4829V12.0366H58.8776ZM62.171 12.0366H61.5658V7.89438H60.2453V7.31163H63.4836V7.89438H62.171V12.0366ZM69.6223 11.4224C69.1627 11.8802 68.5411 12.1371 67.8931 12.1371C67.245 12.1371 66.6234 11.8802 66.1639 11.4224C65.7172 10.9487 65.4684 10.3218 65.4684 9.67019C65.4684 9.01854 65.7172 8.39167 66.1639 7.91801C66.3903 7.68941 66.6598 7.50799 66.9565 7.38418C67.2533 7.26039 67.5716 7.19666 67.8931 7.19666C68.2145 7.19666 68.5328 7.26039 68.8296 7.38418C69.1263 7.50799 69.3958 7.68941 69.6223 7.91801C70.0706 8.39072 70.3207 9.01803 70.3207 9.67019C70.3207 10.3224 70.0706 10.9496 69.6223 11.4224ZM66.6119 11.0286C66.9522 11.3681 67.4129 11.5587 67.8931 11.5587C68.3733 11.5587 68.8339 11.3681 69.1742 11.0286C69.51 10.6577 69.696 10.1748 69.696 9.67413C69.696 9.17334 69.51 8.69048 69.1742 8.31963C68.8339 7.98013 68.3733 7.78945 67.8931 7.78945C67.4129 7.78945 66.9522 7.98013 66.6119 8.31963C66.2761 8.69048 66.0901 9.17334 66.0901 9.67413C66.0901 10.1748 66.2761 10.6577 66.6119 11.0286ZM71.1707 12.0366V7.31163H71.9095L74.2045 10.9893V7.31163H74.81V12.0366H74.1812L71.7838 8.18576V12.0366H71.1707Z" fill="white"/>
<path fill-rule="evenodd" clip-rule="evenodd" d="M67.8926 7.27542C67.5815 7.27542 67.2735 7.33709 66.9863 7.45689C66.6993 7.57655 66.4389 7.75192 66.2199 7.97278C65.7874 8.43172 65.5465 9.03904 65.5465 9.67021C65.5465 10.3013 65.7873 10.9085 66.2197 11.3674C66.6644 11.81 67.2658 12.0584 67.8926 12.0584C68.5195 12.0584 69.1209 11.8099 69.5656 11.3673C69.9996 10.9093 70.2416 10.3018 70.2416 9.67021C70.2416 9.03853 69.9996 8.43092 69.5655 7.97285C69.3464 7.75199 69.0858 7.57662 68.7989 7.45689C68.5117 7.33709 68.2037 7.27542 67.8926 7.27542ZM66.9258 7.3115C67.2322 7.18371 67.5607 7.11792 67.8926 7.11792C68.2245 7.11792 68.553 7.18371 68.8594 7.3115C69.1657 7.43932 69.4438 7.62657 69.6776 7.86253L69.6788 7.8637C70.1411 8.35115 70.3988 8.99784 70.3988 9.67021C70.3988 10.3426 70.1411 10.9892 69.6788 11.4766L69.6772 11.4782C69.203 11.9507 68.5614 12.2159 67.8926 12.2159C67.2238 12.2159 66.5822 11.9507 66.1079 11.4782L66.1063 11.4765C65.6458 10.9882 65.3893 10.3419 65.3893 9.67021C65.3893 8.99843 65.6459 8.35217 66.1063 7.86392L66.1076 7.86253C66.3414 7.62657 66.6195 7.43932 66.9258 7.3115ZM46.716 7.2801C46.4042 7.27314 46.0943 7.33038 45.8055 7.44822C45.5167 7.56605 45.2551 7.742 45.0369 7.9652C44.7043 8.30061 44.4775 8.72732 44.3857 9.191C44.2938 9.65475 44.3406 10.1353 44.5202 10.5726C44.6998 11.0098 45.0042 11.3841 45.3952 11.6487C45.7862 11.9134 46.2465 12.0566 46.7184 12.0603H46.7205C47.0307 12.0714 47.3397 12.0168 47.6274 11.9002C47.9151 11.7836 48.175 11.6075 48.3902 11.3836C48.5825 11.1825 48.7319 10.9444 48.8295 10.6836C48.9271 10.4229 48.9708 10.145 48.9579 9.86679L49.0364 9.86315L48.9578 9.86307C48.9579 9.77083 48.9513 9.67874 48.9381 9.58752H46.7963V9.99702H48.5046L48.5019 10.0783C48.4897 10.4544 48.3428 10.8134 48.0881 11.0899L48.0851 11.0932C47.8105 11.3592 47.4633 11.5376 47.0875 11.6061C46.7118 11.6747 46.3242 11.6302 45.9736 11.4783C45.623 11.3264 45.3252 11.0739 45.1177 10.7526C44.9106 10.4318 44.8027 10.0569 44.8078 9.67495C44.7992 9.41916 44.8421 9.16424 44.934 8.92544C45.0262 8.68598 45.1657 8.46774 45.3441 8.28362C45.5224 8.09951 45.7361 7.95338 45.9722 7.85407C46.2076 7.75498 46.4605 7.70445 46.7158 7.7054C46.9706 7.69176 47.2251 7.73755 47.4593 7.83912C47.668 7.92969 47.8555 8.06232 48.0102 8.22843L48.3149 7.92312C48.1304 7.72669 47.9053 7.57239 47.6551 7.47126L47.6536 7.47068C47.358 7.34387 47.0396 7.27904 46.718 7.28012L46.716 7.2801ZM49.115 9.86132C49.1287 10.1602 49.0816 10.4587 48.9767 10.7389C48.8716 11.0197 48.7107 11.2761 48.5037 11.4926C48.2731 11.7326 47.9946 11.9213 47.6863 12.0462C47.3785 12.171 47.0479 12.2294 46.7161 12.2177C46.2136 12.2135 45.7236 12.0611 45.3072 11.7792C44.8905 11.4973 44.5662 11.0984 44.3749 10.6325C44.1835 10.1666 44.1336 9.65453 44.2314 9.16037C44.3293 8.66629 44.5704 8.21217 44.9247 7.8548C45.158 7.61629 45.4376 7.42824 45.7462 7.30231C46.0547 7.17648 46.3856 7.11532 46.7185 7.12262C47.0609 7.12161 47.3999 7.19065 47.7147 7.3255C48.0103 7.44516 48.2735 7.63313 48.4827 7.8742L48.5308 7.92961L48.0018 8.45965L47.9466 8.39395C47.7976 8.21632 47.6093 8.07588 47.3968 7.98365C47.1843 7.89148 46.9533 7.85006 46.722 7.86275L46.7174 7.86304C46.4825 7.86187 46.2497 7.9081 46.033 7.99925C45.8165 8.0904 45.6205 8.22442 45.4569 8.39329C45.2932 8.56224 45.1652 8.76247 45.0808 8.98209C44.9962 9.20172 44.9568 9.43615 44.9649 9.67137L44.965 9.67524C44.9601 10.0268 45.0591 10.3719 45.2497 10.6671C45.4403 10.9622 45.7139 11.1942 46.036 11.3337C46.3581 11.4733 46.7142 11.5142 47.0594 11.4512C47.4038 11.3883 47.7221 11.2249 47.9741 10.9815C48.1839 10.753 48.3119 10.4622 48.3398 10.1545H46.6391V9.43002H49.0707L49.0824 9.49484C49.1041 9.61581 49.115 9.73846 49.115 9.86132ZM49.8067 7.23287H52.7149V7.97315H50.5927V9.3119H52.5263V10.0364H50.5927V11.3751H52.7149V12.1154H49.8067V7.23287ZM49.9639 7.3904V11.9579H52.5577V11.5326H50.4355V9.8789H52.3691V9.4694H50.4355V7.81565H52.5577V7.3904H49.9639ZM53.2101 7.23287H56.6449V7.97315H55.293V12.1154H54.5306V7.97315H53.2101V7.23287ZM53.3673 7.3904V7.81565H54.6878V11.9579H55.1358V7.81565H56.4877V7.3904H53.3673ZM58.7986 7.23287H59.561V12.1154H58.7986V7.23287ZM58.9558 7.3904V11.9579H59.4038V7.3904H58.9558ZM60.1662 7.23287H63.5617V7.97315H62.2491V12.1154H61.4867V7.97315H60.1662V7.23287ZM60.3234 7.3904V7.81565H61.6439V11.9579H62.0919V7.81565H63.4045V7.3904H60.3234ZM71.0916 7.23287H71.9526L74.1254 10.7147V7.23287H74.8881V12.1154H74.1371L71.8619 8.46081V12.1154H71.0916V7.23287ZM71.2488 7.3904V11.9579H71.7047V7.91066L74.2244 11.9579H74.7309V7.3904H74.2826V11.2637L71.8655 7.3904H71.2488ZM66.5559 8.26379C66.911 7.90964 67.3916 7.71072 67.8926 7.71072C68.3936 7.71072 68.8742 7.90964 69.2292 8.26379L69.2321 8.26663C69.581 8.652 69.7742 9.15381 69.7742 9.67414C69.7742 10.1944 69.5809 10.6961 69.232 11.0815L69.2293 11.0845C68.8743 11.4387 68.3936 11.6375 67.8926 11.6375C67.3916 11.6375 66.911 11.4387 66.5559 11.0844L66.6114 11.0286L66.5532 11.0815C66.2043 10.6961 66.011 10.1944 66.011 9.67414C66.011 9.15381 66.2043 8.65207 66.5532 8.26671L66.5559 8.26379ZM66.6683 10.9742C66.9937 11.2981 67.4338 11.48 67.8926 11.48C68.3514 11.48 68.7915 11.2981 69.1169 10.9742C69.4387 10.6181 69.617 10.1547 69.617 9.67414C69.617 9.19355 69.4387 8.73024 69.1169 8.37397C68.7915 8.05007 68.3514 7.86822 67.8926 7.86822C67.4338 7.86822 66.9937 8.05007 66.6683 8.37397C66.3464 8.73024 66.1682 9.19355 66.1682 9.67414C66.1682 10.1547 66.3464 10.6181 66.6683 10.9742Z" fill="white"/>
<path d="M20.0197 7.68788C19.7635 7.99588 19.6341 8.39014 19.6581 8.79038V26.2099C19.6341 26.61 19.7635 27.0044 20.0197 27.3124L20.0747 27.3675L29.8132 17.6183V17.3899L20.0747 7.63275L20.0197 7.68788Z" fill="url(#paint0_linear_437_73)"/>
<path d="M33.0351 20.8703L29.8125 17.618V17.3896L33.0351 14.1293L33.1058 14.1687L36.9651 16.3658C38.0655 16.988 38.0655 18.0117 36.9651 18.6417L33.1216 20.831L33.0351 20.8703Z" fill="url(#paint1_linear_437_73)"/>
<path d="M33.13 20.8233L29.8131 17.5L20.0195 27.3123C20.2438 27.5098 20.53 27.6227 20.8285 27.6313C21.127 27.6399 21.4191 27.5438 21.6544 27.3595L33.1379 20.8233" fill="url(#paint2_linear_437_73)"/>
<path d="M33.1301 14.1768L21.6466 7.64052C21.4113 7.45626 21.1192 7.36015 20.8206 7.36876C20.5221 7.37736 20.236 7.49024 20.0117 7.68777L29.8131 17.5L33.1301 14.1768Z" fill="url(#paint3_linear_437_73)"/>
<path opacity="0.2" d="M33.0357 20.7524L21.6466 27.2493C21.4196 27.4193 21.1439 27.5111 20.8606 27.5111C20.5772 27.5111 20.3015 27.4193 20.0746 27.2493L20.0195 27.3044L20.0746 27.3595C20.301 27.5307 20.5769 27.6234 20.8606 27.6234C21.1442 27.6234 21.4201 27.5307 21.6466 27.3595L33.13 20.8233L33.0357 20.7524Z" fill="black"/>
<path opacity="0.12" d="M20.0197 27.202C19.7635 26.894 19.6341 26.4997 19.6581 26.0995V26.2176C19.6341 26.6179 19.7635 27.0121 20.0197 27.3201L20.0747 27.265L20.0197 27.202ZM36.9658 18.5237L33.0358 20.7524L33.1066 20.8233L36.9658 18.634C37.1848 18.531 37.3728 18.3718 37.5108 18.1727C37.6488 17.9736 37.7319 17.7416 37.7518 17.5C37.7076 17.7195 37.6138 17.9259 37.4775 18.1034C37.3413 18.2809 37.1662 18.4247 36.9658 18.5237Z" fill="black"/>
<path opacity="0.25" d="M21.6468 7.75066L36.966 16.4762C37.1664 16.5753 37.3414 16.7191 37.4777 16.8966C37.6139 17.0741 37.7078 17.2804 37.752 17.4999C37.7321 17.2583 37.6489 17.0263 37.5109 16.8272C37.3729 16.6281 37.185 16.469 36.966 16.3659L21.6468 7.64041C20.5464 7.01831 19.6504 7.53804 19.6504 8.79804V8.91616C19.674 7.64829 20.5543 7.12856 21.6468 7.75066Z" fill="white"/>
</g>
<defs>
<linearGradient id="paint0_linear_437_73" x1="28.9486" y1="8.60925" x2="15.7344" y2="21.7983" gradientUnits="userSpaceOnUse">
<stop stop-color="#00A0FF"/>
<stop offset="0.01" stop-color="#00A1FF"/>
<stop offset="0.26" stop-color="#00BEFF"/>
<stop offset="0.51" stop-color="#00D2FF"/>
<stop offset="0.76" stop-color="#00DFFF"/>
<stop offset="1" stop-color="#00E3FF"/>
</linearGradient>
<linearGradient id="paint1_linear_437_73" x1="38.4035" y1="17.4998" x2="19.3901" y2="17.4998" gradientUnits="userSpaceOnUse">
<stop stop-color="#FFE000"/>
<stop offset="0.41" stop-color="#FFBD00"/>
<stop offset="0.78" stop-color="#FFA500"/>
<stop offset="1" stop-color="#FF9C00"/>
</linearGradient>
<linearGradient id="paint2_linear_437_73" x1="31.3301" y1="19.3113" x2="13.4066" y2="37.1927" gradientUnits="userSpaceOnUse">
<stop stop-color="#FF3A44"/>
<stop offset="1" stop-color="#C31162"/>
</linearGradient>
<linearGradient id="paint3_linear_437_73" x1="17.5515" y1="1.89177" x2="25.5525" y2="9.87751" gradientUnits="userSpaceOnUse">
<stop stop-color="#32A071"/>
<stop offset="0.07" stop-color="#2DA771"/>
<stop offset="0.48" stop-color="#15CF74"/>
<stop offset="0.8" stop-color="#06E775"/>
<stop offset="1" stop-color="#00F076"/>
</linearGradient>
<clipPath id="clip0_437_73">
<rect width="131" height="35" fill="white"/>
</clipPath>
</defs>
</svg>
