<svg width="132" height="36" viewBox="0 0 132 36" fill="none" xmlns="http://www.w3.org/2000/svg">
<g clip-path="url(#clip0_57_3)">
<mask id="mask0_57_3" style="mask-type:luminance" maskUnits="userSpaceOnUse" x="0" y="0" width="132" height="36">
<path d="M131.5 0.5H0.5V35.5H131.5V0.5Z" fill="white"/>
</mask>
<g mask="url(#mask0_57_3)">
<path d="M6.32222 1H125.678C128.616 1 131 3.38692 131 6.33333V29.6667C131 32.6131 128.616 35 125.678 35H6.32222C3.38374 35 1 32.6131 1 29.6667V6.33333C1 3.38692 3.38374 1 6.32222 1Z" fill="#181818" stroke="#FFAF32" stroke-opacity="0.3"/>
<path d="M65.8723 19.3781C65.2123 19.3812 64.568 19.5801 64.0208 19.9498C63.4735 20.3194 63.0477 20.8432 62.7973 21.455C62.5469 22.0669 62.483 22.7393 62.6137 23.3875C62.7443 24.0357 63.0637 24.6306 63.5315 25.0971C63.9993 25.5635 64.5946 25.8808 65.2421 26.0086C65.8896 26.1365 66.5605 26.0693 67.17 25.8155C67.7795 25.5618 68.3003 25.1328 68.6666 24.5827C69.033 24.0327 69.2285 23.3862 69.2285 22.725C69.2349 22.2824 69.1524 21.843 68.9858 21.433C68.8192 21.0229 68.572 20.6507 68.2589 20.3385C67.9457 20.0262 67.573 19.7802 67.163 19.6152C66.753 19.4502 66.3141 19.3696 65.8723 19.3781ZM65.8723 24.7567C65.4664 24.7852 65.0614 24.6906 64.7098 24.4853C64.3583 24.2801 64.0765 23.9736 63.9011 23.6057C63.7257 23.2379 63.6648 22.8257 63.7263 22.4227C63.7878 22.0197 63.969 21.6446 64.2461 21.3461C64.5232 21.0476 64.8836 20.8396 65.2803 20.7489C65.677 20.6584 66.0918 20.6894 66.4706 20.8382C66.8495 20.9869 67.1749 21.2464 67.4047 21.5829C67.6343 21.9193 67.7577 22.3173 67.7587 22.725C67.7714 22.9833 67.7323 23.2415 67.6437 23.4845C67.5552 23.7274 67.4191 23.9501 67.2432 24.1395C67.0674 24.3288 66.8556 24.481 66.6201 24.587C66.3846 24.693 66.1304 24.7507 65.8723 24.7567ZM58.5547 19.3781C57.8943 19.3796 57.2492 19.5772 56.7009 19.946C56.1526 20.3146 55.7257 20.838 55.4741 21.4496C55.2225 22.0613 55.1574 22.734 55.2872 23.3827C55.4169 24.0314 55.7358 24.6271 56.2032 25.0943C56.6707 25.5616 57.2659 25.8796 57.9137 26.0081C58.5615 26.1366 59.2327 26.0699 59.8427 25.8163C60.4526 25.5627 60.9739 25.1338 61.3406 24.5835C61.7073 24.0334 61.903 23.3866 61.903 22.725C61.9094 22.2824 61.8269 21.843 61.6603 21.433C61.4937 21.0229 61.2465 20.6507 60.9333 20.3385C60.6202 20.0262 60.2475 19.7802 59.8375 19.6152C59.4275 19.4502 58.9886 19.3696 58.5468 19.3781H58.5547ZM58.5547 24.7567C58.1486 24.7868 57.7428 24.6936 57.3903 24.4894C57.0378 24.2852 56.7548 23.9794 56.5782 23.6118C56.4015 23.2441 56.3395 22.8318 56.4 22.4283C56.4606 22.0249 56.641 21.6491 56.9177 21.3498C57.1944 21.0504 57.5547 20.8415 57.9516 20.7502C58.3484 20.6589 58.7635 20.6895 59.1429 20.8379C59.5222 20.9863 59.8481 21.2456 60.0783 21.5822C60.3085 21.9188 60.4321 22.317 60.4332 22.725C60.4459 22.9833 60.4068 23.2415 60.3182 23.4845C60.2297 23.7274 60.0935 23.9501 59.9177 24.1395C59.7419 24.3288 59.53 24.481 59.2946 24.587C59.0591 24.693 58.8049 24.7507 58.5468 24.7567H58.5547ZM49.8379 20.4097V21.8272H53.2334C53.1802 22.4948 52.9032 23.1248 52.4474 23.6148C52.1077 23.9616 51.6994 24.2331 51.2486 24.4121C50.7978 24.5912 50.3146 24.6737 49.8301 24.6543C48.8294 24.6543 47.8699 24.2561 47.1623 23.5472C46.4548 22.8384 46.0573 21.8769 46.0573 20.8743C46.0573 19.8718 46.4548 18.9103 47.1623 18.2015C47.8699 17.4926 48.8294 17.0943 49.8301 17.0943C50.7872 17.0787 51.7116 17.444 52.4003 18.1102L53.3985 17.1101C52.9336 16.6384 52.3789 16.265 51.7673 16.012C51.1556 15.7591 50.4995 15.6317 49.8379 15.6375C49.1392 15.6102 48.4421 15.7246 47.7885 15.9737C47.135 16.2228 46.5382 16.6016 46.0343 17.0873C45.5303 17.573 45.1293 18.1556 44.8555 18.8002C44.5816 19.4449 44.4404 20.1382 44.4404 20.8389C44.4404 21.5395 44.5816 22.2329 44.8555 22.8776C45.1293 23.5222 45.5303 24.1048 46.0343 24.5905C46.5382 25.0762 47.135 25.455 47.7885 25.7041C48.4421 25.9532 49.1392 26.0676 49.8379 26.0403C50.5107 26.0708 51.1822 25.9566 51.8072 25.7052C52.4322 25.4539 52.9963 25.0714 53.4614 24.5835C54.2849 23.677 54.7245 22.4854 54.6875 21.2602C54.6901 20.9618 54.6637 20.6638 54.6089 20.3703L49.8379 20.4097ZM85.4518 21.5122C85.2466 20.908 84.863 20.3804 84.3521 19.9993C83.8412 19.6182 83.227 19.4016 82.5909 19.3781C82.1608 19.3772 81.735 19.4648 81.3399 19.6353C80.9454 19.8057 80.5895 20.0555 80.2948 20.3692C80 20.6829 79.773 21.0538 79.6267 21.459C79.4811 21.8642 79.42 22.2951 79.4469 22.725C79.4367 23.1651 79.516 23.6027 79.6791 24.0115C79.8421 24.4204 80.0859 24.7921 80.3952 25.1045C80.7052 25.4168 81.0742 25.6635 81.481 25.8298C81.8879 25.9959 82.3238 26.0783 82.7634 26.0718C83.3136 26.0748 83.8551 25.9411 84.3405 25.6828C84.8266 25.4243 85.2407 25.0494 85.5457 24.5913L84.406 23.8038C84.2364 24.0879 83.9955 24.3229 83.7073 24.4858C83.4191 24.6487 83.0938 24.7339 82.7634 24.7331C82.4228 24.7461 82.0866 24.6562 81.7976 24.475C81.5087 24.2938 81.2816 24.0297 81.1441 23.7172L85.617 21.8666L85.4518 21.5122ZM80.893 22.6305C80.877 22.3869 80.9097 22.1426 80.9891 21.9118C81.0684 21.6811 81.1936 21.4685 81.3559 21.2867C81.5182 21.1048 81.7154 20.9572 81.9352 20.8526C82.1557 20.748 82.3944 20.6885 82.6375 20.6775C82.8915 20.6607 83.144 20.719 83.3645 20.845C83.5858 20.971 83.7648 21.1592 83.8798 21.3862L80.893 22.6305ZM77.2614 25.875H78.7315V16.0312H77.2614V25.875ZM74.8561 20.1262H74.8015C74.5795 19.8781 74.3081 19.6796 74.0053 19.5439C73.7018 19.4082 73.3729 19.3383 73.0406 19.3387C72.1817 19.3804 71.3717 19.7517 70.7785 20.3755C70.1854 20.9993 69.8545 21.8279 69.8545 22.6895C69.8545 23.5511 70.1854 24.3797 70.7785 25.0035C71.3717 25.6273 72.1817 25.9986 73.0406 26.0403C73.3736 26.046 73.704 25.9784 74.0082 25.8423C74.3124 25.7062 74.5832 25.5051 74.8015 25.2528H74.8488V25.7332C74.8488 27.0168 74.1647 27.702 73.0642 27.702C72.6977 27.6934 72.3421 27.5757 72.0426 27.3639C71.743 27.1522 71.5131 26.8559 71.3822 26.5128L70.101 27.0483C70.3422 27.6361 70.7531 28.1383 71.2811 28.4904C71.809 28.8426 72.43 29.0288 73.0642 29.025C74.7855 29.025 76.2083 28.0091 76.2083 25.5363V19.575H74.8561V20.1262ZM73.1743 24.7567C72.6673 24.7119 72.1954 24.4785 71.8517 24.1024C71.5079 23.7263 71.3173 23.2349 71.3173 22.725C71.3173 22.215 71.5079 21.7236 71.8517 21.3475C72.1954 20.9714 72.6673 20.738 73.1743 20.6932C73.426 20.7061 73.672 20.7693 73.8983 20.8791C74.1254 20.9888 74.3277 21.1429 74.4937 21.3323C74.6603 21.5216 74.7869 21.7423 74.867 21.9816C74.9463 22.2207 74.9776 22.4735 74.9587 22.725C74.9798 22.9775 74.95 23.2318 74.8706 23.4724C74.7913 23.7131 74.664 23.935 74.4966 24.125C74.3284 24.3149 74.1247 24.4688 73.8961 24.5774C73.6676 24.686 73.4195 24.7469 73.1664 24.7567H73.1743ZM92.3373 16.0312H88.8236V25.875H90.2937V22.1422H92.3446C92.7638 22.1723 93.1844 22.1157 93.5804 21.9758C93.9763 21.836 94.3394 21.6158 94.6473 21.3291C94.9544 21.0424 95.1997 20.6954 95.367 20.3096C95.5352 19.9238 95.6218 19.5075 95.6218 19.0867C95.6218 18.6659 95.5352 18.2496 95.367 17.8638C95.1997 17.478 94.9544 17.131 94.6473 16.8443C94.3394 16.5576 93.9763 16.3375 93.5804 16.1976C93.1844 16.0577 92.7638 16.001 92.3446 16.0312H92.3373ZM92.3373 20.7562H90.2857V17.4015H92.3686C92.8155 17.4015 93.2441 17.5795 93.5607 17.8962C93.8766 18.213 94.0541 18.6427 94.0541 19.0907C94.0541 19.5387 93.8766 19.9683 93.5607 20.2851C93.2441 20.6019 92.8155 20.7798 92.3686 20.7798L92.3373 20.7562ZM101.4 19.3387C100.865 19.3066 100.332 19.432 99.8669 19.6991C99.4018 19.9664 99.0249 20.3639 98.7825 20.8428L100.087 21.3862C100.216 21.1487 100.411 20.9537 100.648 20.8251C100.885 20.6964 101.154 20.6397 101.423 20.6617C101.61 20.6399 101.798 20.6555 101.979 20.7077C102.159 20.7598 102.328 20.8474 102.475 20.9655C102.621 21.0835 102.742 21.2295 102.832 21.395C102.921 21.5606 102.977 21.7423 102.995 21.9296V22.032C102.523 21.7816 101.996 21.6517 101.462 21.654C100.055 21.654 98.6326 22.4415 98.6326 23.8668C98.6464 24.1708 98.7214 24.4688 98.8524 24.7434C98.9826 25.0179 99.1675 25.2634 99.3946 25.4653C99.6216 25.6672 99.8873 25.8214 100.175 25.9189C100.462 26.0163 100.766 26.0549 101.069 26.0325C101.44 26.0591 101.81 25.9854 102.142 25.8191C102.474 25.6529 102.755 25.4001 102.956 25.0875H103.003V25.875H104.418V22.0871C104.418 20.3625 103.113 19.3623 101.439 19.3623L101.4 19.3387ZM101.219 24.7331C100.739 24.7331 100.071 24.489 100.071 23.8983C100.071 23.1108 100.905 22.851 101.643 22.851C102.11 22.8394 102.571 22.9536 102.98 23.1817C102.93 23.6081 102.729 24.0022 102.413 24.2917C102.096 24.5811 101.686 24.7463 101.258 24.7567L101.219 24.7331ZM109.574 19.575L107.892 23.8432H107.845L106.1 19.575H104.528L107.145 25.5442L105.652 28.8596H107.185L111.209 19.575H109.574ZM96.3612 25.875H97.8313V16.0312H96.3612V25.875Z" fill="white"/>
<path d="M49.5369 10.3632C49.5503 10.6521 49.5049 10.9406 49.4036 11.2113C49.3023 11.4821 49.147 11.7294 48.9474 11.9382C48.7245 12.1702 48.4553 12.3525 48.1573 12.4733C47.8594 12.594 47.5394 12.6506 47.2182 12.6391C46.7309 12.6352 46.2555 12.4874 45.8517 12.2141C45.4478 11.9408 45.1335 11.5541 44.948 11.1026C44.7625 10.651 44.7142 10.1548 44.8091 9.67579C44.9039 9.19688 45.1376 8.7566 45.4812 8.41025C45.7069 8.17932 45.9776 7.99725 46.2763 7.87533C46.5751 7.75346 46.8957 7.69427 47.2182 7.70147C47.5505 7.70036 47.8795 7.76737 48.185 7.89838C48.4694 8.01329 48.7226 8.19412 48.9238 8.426L48.5073 8.84337C48.3503 8.65642 48.1522 8.50854 47.9285 8.41149C47.7048 8.31444 47.4617 8.27091 47.2182 8.28425C46.9727 8.28301 46.7295 8.3315 46.5031 8.42673C46.2768 8.52203 46.072 8.6621 45.9009 8.83856C45.7299 9.01509 45.5962 9.22436 45.5079 9.45383C45.4195 9.68337 45.3784 9.92837 45.3868 10.1742C45.3817 10.5413 45.4852 10.9016 45.6842 11.2099C45.8833 11.5182 46.169 11.7604 46.5053 11.9061C46.8416 12.0518 47.2134 12.0945 47.574 12.0288C47.9344 11.963 48.2674 11.7917 48.5308 11.5366C48.7727 11.274 48.9122 10.9329 48.9238 10.5759H47.2182V10.0089H49.5055C49.5264 10.1258 49.537 10.2444 49.5369 10.3632ZM53.1368 8.3945H51.0146V9.89075H52.9482V10.4577H51.0146V11.954H53.1368V12.5367H50.3858V7.81175H53.1368V8.3945ZM55.7149 12.5367H55.1097V8.3945H53.7892V7.81175H57.0668V8.3945H55.7149V12.5367ZM59.3776 12.5367V7.81175H59.9829V12.5367H59.3776ZM62.671 12.5367H62.0658V8.3945H60.7453V7.81175H63.9836V8.3945H62.671V12.5367ZM70.1223 11.9225C69.6627 12.3803 69.0411 12.6372 68.3931 12.6372C67.745 12.6372 67.1234 12.3803 66.6639 11.9225C66.2172 11.4488 65.9684 10.8219 65.9684 10.1703C65.9684 9.51866 66.2172 8.89179 66.6639 8.41813C66.8903 8.18953 67.1598 8.00811 67.4565 7.8843C67.7533 7.76051 68.0716 7.69678 68.3931 7.69678C68.7145 7.69678 69.0328 7.76051 69.3296 7.8843C69.6263 8.00811 69.8958 8.18953 70.1223 8.41813C70.5706 8.89084 70.8207 9.51815 70.8207 10.1703C70.8207 10.8225 70.5706 11.4497 70.1223 11.9225ZM67.1119 11.5287C67.4522 11.8682 67.9129 12.0588 68.3931 12.0588C68.8733 12.0588 69.3339 11.8682 69.6742 11.5287C70.01 11.1578 70.196 10.6749 70.196 10.1742C70.196 9.67346 70.01 9.1906 69.6742 8.81975C69.3339 8.48025 68.8733 8.28957 68.3931 8.28957C67.9129 8.28957 67.4522 8.48025 67.1119 8.81975C66.7761 9.1906 66.5901 9.67346 66.5901 10.1742C66.5901 10.6749 66.7761 11.1578 67.1119 11.5287ZM71.6707 12.5367V7.81175H72.4095L74.7045 11.4894V7.81175H75.31V12.5367H74.6812L72.2838 8.68588V12.5367H71.6707Z" fill="white"/>
<path fill-rule="evenodd" clip-rule="evenodd" d="M68.3926 7.77542C68.0815 7.77542 67.7735 7.83709 67.4863 7.95689C67.1993 8.07655 66.9389 8.25192 66.7199 8.47278C66.2874 8.93172 66.0465 9.53904 66.0465 10.1702C66.0465 10.8013 66.2873 11.4085 66.7197 11.8674C67.1644 12.31 67.7658 12.5584 68.3926 12.5584C69.0195 12.5584 69.6209 12.3099 70.0656 11.8673C70.4996 11.4093 70.7416 10.8018 70.7416 10.1702C70.7416 9.53853 70.4996 8.93092 70.0655 8.47285C69.8464 8.25199 69.5858 8.07662 69.2989 7.95689C69.0117 7.83709 68.7037 7.77542 68.3926 7.77542ZM67.4258 7.8115C67.7322 7.68371 68.0607 7.61792 68.3926 7.61792C68.7245 7.61792 69.053 7.68371 69.3594 7.8115C69.6657 7.93932 69.9438 8.12657 70.1776 8.36253L70.1788 8.3637C70.6411 8.85115 70.8988 9.49784 70.8988 10.1702C70.8988 10.8426 70.6411 11.4892 70.1788 11.9766L70.1772 11.9782C69.703 12.4507 69.0614 12.7159 68.3926 12.7159C67.7238 12.7159 67.0822 12.4507 66.6079 11.9782L66.6063 11.9765C66.1458 11.4882 65.8893 10.8419 65.8893 10.1702C65.8893 9.49843 66.1459 8.85217 66.6063 8.36392L66.6076 8.36253C66.8414 8.12657 67.1195 7.93932 67.4258 7.8115ZM47.216 7.7801C46.9042 7.77314 46.5943 7.83038 46.3055 7.94822C46.0167 8.06605 45.7551 8.242 45.5369 8.4652C45.2043 8.80061 44.9775 9.22732 44.8857 9.691C44.7938 10.1547 44.8406 10.6353 45.0202 11.0726C45.1998 11.5098 45.5042 11.8841 45.8952 12.1487C46.2862 12.4134 46.7465 12.5566 47.2184 12.5603H47.2205C47.5307 12.5714 47.8397 12.5168 48.1274 12.4002C48.4151 12.2836 48.675 12.1075 48.8902 11.8836C49.0825 11.6825 49.2319 11.4444 49.3295 11.1836C49.4271 10.9229 49.4708 10.645 49.4579 10.3668L49.5364 10.3631L49.4578 10.3631C49.4579 10.2708 49.4513 10.1787 49.4381 10.0875H47.2963V10.497H49.0046L49.0019 10.5783C48.9897 10.9544 48.8428 11.3134 48.5881 11.5899L48.5851 11.5932C48.3105 11.8592 47.9633 12.0376 47.5875 12.1061C47.2118 12.1747 46.8242 12.1302 46.4736 11.9783C46.123 11.8264 45.8252 11.5739 45.6177 11.2526C45.4106 10.9318 45.3027 10.5569 45.3078 10.1749C45.2992 9.91916 45.3421 9.66424 45.434 9.42544C45.5262 9.18598 45.6657 8.96774 45.8441 8.78362C46.0224 8.59951 46.2361 8.45338 46.4722 8.35407C46.7076 8.25498 46.9605 8.20445 47.2158 8.2054C47.4706 8.19176 47.7251 8.23755 47.9593 8.33912C48.168 8.42969 48.3555 8.56232 48.5102 8.72843L48.8149 8.42312C48.6304 8.22669 48.4053 8.07239 48.1551 7.97126L48.1536 7.97068C47.858 7.84387 47.5396 7.77904 47.218 7.78012L47.216 7.7801ZM49.615 10.3613C49.6287 10.6602 49.5816 10.9587 49.4767 11.2389C49.3716 11.5197 49.2107 11.7761 49.0037 11.9926C48.7731 12.2326 48.4946 12.4213 48.1863 12.5462C47.8785 12.671 47.5479 12.7294 47.2161 12.7177C46.7136 12.7135 46.2236 12.5611 45.8072 12.2792C45.3905 11.9973 45.0662 11.5984 44.8749 11.1325C44.6835 10.6666 44.6336 10.1545 44.7314 9.66037C44.8293 9.16629 45.0704 8.71217 45.4247 8.3548C45.658 8.11629 45.9376 7.92824 46.2462 7.80231C46.5547 7.67648 46.8856 7.61532 47.2185 7.62262C47.5609 7.62161 47.8999 7.69065 48.2147 7.8255C48.5103 7.94516 48.7735 8.13313 48.9827 8.3742L49.0308 8.42961L48.5018 8.95965L48.4466 8.89395C48.2976 8.71632 48.1093 8.57588 47.8968 8.48365C47.6843 8.39148 47.4533 8.35006 47.222 8.36275L47.2174 8.36304C46.9825 8.36187 46.7497 8.4081 46.533 8.49925C46.3165 8.5904 46.1205 8.72442 45.9569 8.89329C45.7932 9.06224 45.6652 9.26247 45.5808 9.48209C45.4962 9.70172 45.4568 9.93615 45.4649 10.1714L45.465 10.1752C45.4601 10.5268 45.5591 10.8719 45.7497 11.1671C45.9403 11.4622 46.2139 11.6942 46.536 11.8337C46.8581 11.9733 47.2142 12.0142 47.5594 11.9512C47.9038 11.8883 48.2221 11.7249 48.4741 11.4815C48.6839 11.253 48.8119 10.9622 48.8398 10.6545H47.1391V9.93002H49.5707L49.5824 9.99484C49.6041 10.1158 49.615 10.2385 49.615 10.3613ZM50.3067 7.73287H53.2149V8.47315H51.0927V9.8119H53.0263V10.5364H51.0927V11.8751H53.2149V12.6154H50.3067V7.73287ZM50.4639 7.8904V12.4579H53.0577V12.0326H50.9355V10.3789H52.8691V9.9694H50.9355V8.31565H53.0577V7.8904H50.4639ZM53.7101 7.73287H57.1449V8.47315H55.793V12.6154H55.0306V8.47315H53.7101V7.73287ZM53.8673 7.8904V8.31565H55.1878V12.4579H55.6358V8.31565H56.9877V7.8904H53.8673ZM59.2986 7.73287H60.061V12.6154H59.2986V7.73287ZM59.4558 7.8904V12.4579H59.9038V7.8904H59.4558ZM60.6662 7.73287H64.0617V8.47315H62.7491V12.6154H61.9867V8.47315H60.6662V7.73287ZM60.8234 7.8904V8.31565H62.1439V12.4579H62.5919V8.31565H63.9045V7.8904H60.8234ZM71.5916 7.73287H72.4526L74.6254 11.2147V7.73287H75.3881V12.6154H74.6371L72.3619 8.96081V12.6154H71.5916V7.73287ZM71.7488 7.8904V12.4579H72.2047V8.41066L74.7244 12.4579H75.2309V7.8904H74.7826V11.7637L72.3655 7.8904H71.7488ZM67.0559 8.76379C67.411 8.40964 67.8916 8.21072 68.3926 8.21072C68.8936 8.21072 69.3742 8.40964 69.7292 8.76379L69.7321 8.76663C70.081 9.152 70.2742 9.65381 70.2742 10.1741C70.2742 10.6944 70.0809 11.1961 69.732 11.5815L69.7293 11.5845C69.3743 11.9387 68.8936 12.1375 68.3926 12.1375C67.8916 12.1375 67.411 11.9387 67.0559 11.5844L67.1114 11.5286L67.0532 11.5815C66.7043 11.1961 66.511 10.6944 66.511 10.1741C66.511 9.65381 66.7043 9.15207 67.0532 8.76671L67.0559 8.76379ZM67.1683 11.4742C67.4937 11.7981 67.9338 11.98 68.3926 11.98C68.8514 11.98 69.2915 11.7981 69.6169 11.4742C69.9387 11.1181 70.117 10.6547 70.117 10.1741C70.117 9.69355 69.9387 9.23024 69.6169 8.87397C69.2915 8.55007 68.8514 8.36822 68.3926 8.36822C67.9338 8.36822 67.4937 8.55007 67.1683 8.87397C66.8464 9.23024 66.6682 9.69355 66.6682 10.1741C66.6682 10.6547 66.8464 11.1181 67.1683 11.4742Z" fill="white"/>
<path d="M20.5197 8.18794C20.2635 8.49594 20.1341 8.8902 20.1581 9.29044V26.71C20.1341 27.1101 20.2635 27.5045 20.5197 27.8125L20.5747 27.8676L30.3132 18.1184V17.89L20.5747 8.13281L20.5197 8.18794Z" fill="url(#paint0_linear_57_3)"/>
<path d="M33.5351 21.3704L30.3125 18.1181V17.8897L33.5351 14.6294L33.6058 14.6688L37.4651 16.8659C38.5655 17.4881 38.5655 18.5118 37.4651 19.1418L33.6216 21.3311L33.5351 21.3704Z" fill="url(#paint1_linear_57_3)"/>
<path d="M33.63 21.3233L30.3131 18L20.5195 27.8123C20.7438 28.0098 21.03 28.1227 21.3285 28.1313C21.627 28.1399 21.9191 28.0438 22.1544 27.8595L33.6379 21.3233" fill="url(#paint2_linear_57_3)"/>
<path d="M33.6301 14.6767L22.1466 8.14046C21.9113 7.9562 21.6192 7.86009 21.3206 7.8687C21.0221 7.8773 20.736 7.99018 20.5117 8.18771L30.3131 17.9999L33.6301 14.6767Z" fill="url(#paint3_linear_57_3)"/>
<path opacity="0.2" d="M33.5357 21.2524L22.1466 27.7493C21.9196 27.9193 21.6439 28.0111 21.3606 28.0111C21.0772 28.0111 20.8015 27.9193 20.5746 27.7493L20.5195 27.8044L20.5746 27.8595C20.801 28.0307 21.0769 28.1234 21.3606 28.1234C21.6442 28.1234 21.9201 28.0307 22.1466 27.8595L33.63 21.3233L33.5357 21.2524Z" fill="black"/>
<path opacity="0.12" d="M20.5197 27.702C20.2635 27.394 20.1341 26.9997 20.1581 26.5995V26.7176C20.1341 27.1179 20.2635 27.5121 20.5197 27.8201L20.5747 27.765L20.5197 27.702ZM37.4658 19.0237L33.5358 21.2524L33.6066 21.3233L37.4658 19.134C37.6848 19.031 37.8728 18.8718 38.0108 18.6727C38.1488 18.4736 38.2319 18.2416 38.2518 18C38.2076 18.2195 38.1138 18.4259 37.9775 18.6034C37.8413 18.7809 37.6662 18.9247 37.4658 19.0237Z" fill="black"/>
<path opacity="0.25" d="M22.1468 8.25066L37.466 16.9762C37.6664 17.0753 37.8414 17.2191 37.9777 17.3966C38.1139 17.5741 38.2078 17.7804 38.252 17.9999C38.2321 17.7583 38.1489 17.5263 38.0109 17.3272C37.8729 17.1281 37.685 16.969 37.466 16.8659L22.1468 8.14041C21.0464 7.51831 20.1504 8.03804 20.1504 9.29804V9.41616C20.174 8.14829 21.0543 7.62856 22.1468 8.25066Z" fill="white"/>
</g>
</g>
<defs>
<linearGradient id="paint0_linear_57_3" x1="29.4486" y1="9.10931" x2="16.2344" y2="22.2984" gradientUnits="userSpaceOnUse">
<stop stop-color="#00A0FF"/>
<stop offset="0.01" stop-color="#00A1FF"/>
<stop offset="0.26" stop-color="#00BEFF"/>
<stop offset="0.51" stop-color="#00D2FF"/>
<stop offset="0.76" stop-color="#00DFFF"/>
<stop offset="1" stop-color="#00E3FF"/>
</linearGradient>
<linearGradient id="paint1_linear_57_3" x1="38.9035" y1="17.9999" x2="19.8901" y2="17.9999" gradientUnits="userSpaceOnUse">
<stop stop-color="#FFE000"/>
<stop offset="0.41" stop-color="#FFBD00"/>
<stop offset="0.78" stop-color="#FFA500"/>
<stop offset="1" stop-color="#FF9C00"/>
</linearGradient>
<linearGradient id="paint2_linear_57_3" x1="31.8301" y1="19.8113" x2="13.9066" y2="37.6927" gradientUnits="userSpaceOnUse">
<stop stop-color="#FF3A44"/>
<stop offset="1" stop-color="#C31162"/>
</linearGradient>
<linearGradient id="paint3_linear_57_3" x1="18.0515" y1="2.39171" x2="26.0525" y2="10.3774" gradientUnits="userSpaceOnUse">
<stop stop-color="#32A071"/>
<stop offset="0.07" stop-color="#2DA771"/>
<stop offset="0.48" stop-color="#15CF74"/>
<stop offset="0.8" stop-color="#06E775"/>
<stop offset="1" stop-color="#00F076"/>
</linearGradient>
<clipPath id="clip0_57_3">
<rect width="131" height="35" fill="white" transform="translate(0.5 0.5)"/>
</clipPath>
</defs>
</svg>
