<svg width="43" height="82" viewBox="0 0 43 82" fill="none" xmlns="http://www.w3.org/2000/svg">
<path d="M42.57 43.6925H0.43C0.192518 43.6925 0 43.8839 0 44.1201V45.8697C0 46.1059 0.192518 46.2973 0.43 46.2973H42.57C42.8075 46.2973 43 46.1059 43 45.8697V44.1201C43 43.8839 42.8075 43.6925 42.57 43.6925Z" fill="white"/>
<path d="M3.4106 81.6795H0.106969V53.4366H3.4106V81.6795ZM22.8295 66.9772H32.9016V80.037C31.7735 80.6246 30.3016 81.0973 28.486 81.4552C26.6757 81.8184 24.8439 82 22.9907 82C20.1705 82 17.7398 81.4258 15.6985 80.2774C13.6572 79.129 12.0914 77.4731 11.0009 75.3098C9.9158 73.1465 9.37325 70.5559 9.37325 67.538C9.37325 64.5468 9.91043 61.9696 10.9848 59.8063C12.0591 57.643 13.6035 55.9871 15.6179 54.8387C17.6323 53.6903 20.0093 53.1161 22.7489 53.1161C24.7365 53.1161 26.5629 53.4179 28.2281 54.0215C29.8934 54.6197 31.3169 55.5064 32.4987 56.6815L31.2497 59.2054C29.8799 58.0302 28.529 57.189 27.1968 56.6815C25.8699 56.1741 24.3873 55.9204 22.7489 55.9204C19.5527 55.9204 17.0952 56.9219 15.3762 58.9249C13.6572 60.928 12.7978 63.799 12.7978 67.538C12.7978 71.3572 13.6707 74.2602 15.4165 76.2473C17.1623 78.2396 19.7139 79.2358 23.0712 79.2358C25.5154 79.2358 27.785 78.8753 29.8799 78.1542V69.5411H22.8295V66.9772ZM42.893 81.6795H39.5894V53.4366H42.893V81.6795Z" fill="white"/>
<path d="M29.4138 12.5383C34.8176 17.6174 36.7233 25.0946 26.0652 31.7028C27.565 29.6837 28.3949 27.6901 28.577 25.6928C28.9688 21.3843 26.2671 17.8788 23.2886 14.7323C18.9227 10.1198 18.598 5.67036 22.2663 0.730099C21.5102 7.22766 25.6396 8.99063 29.4138 12.5383ZM17.6824 36.3476C20.2305 30.9997 20.6804 28.0298 14.305 22.0329C12.5728 20.4035 11.235 18.7433 10.3042 17.0811C9.11712 19.7176 8.17645 25.3085 11.6408 28.5263C13.984 30.7027 17.2033 32.0084 17.6824 36.3476ZM22.3883 15.5746C18.8753 11.8627 16.3273 6.65898 21.2721 0C7.87978 5.20001 7.10846 13.5716 15.1538 21.1397C21.9326 27.5152 21.5811 31.0354 18.7999 36.8737C31.9334 27.2456 27.3327 20.7984 22.3883 15.5746Z" fill="white"/>
</svg>
