<svg width="116" height="305" viewBox="0 0 116 305" fill="none" xmlns="http://www.w3.org/2000/svg">
<g opacity="0.1">
<path d="M79.1607 103.71C123.636 145.722 139.32 207.569 51.6007 262.229C63.9446 245.528 70.7744 229.038 72.2733 212.517C75.4982 176.88 53.2624 147.884 28.7477 121.858C-7.18508 83.7056 -9.85732 46.9022 20.3342 6.039C14.1114 59.7834 48.0977 74.3658 79.1607 103.71ZM-17.3925 300.649C3.57846 256.413 7.28162 231.847 -45.1899 182.244C-59.4463 168.767 -70.4574 155.035 -78.1181 141.286C-87.888 163.094 -95.63 209.338 -67.1171 235.955C-47.8316 253.957 -21.3364 264.757 -17.3925 300.649ZM21.338 128.825C-7.57506 98.1219 -28.546 55.0796 12.1514 0C-98.0716 43.0118 -104.42 112.257 -38.2041 174.856C17.5874 227.591 14.6947 256.708 -8.19566 305C99.8977 225.361 62.032 172.034 21.338 128.825Z" fill="#F1F1FF"/>
</g>
</svg>
